<svg width="40" height="40" viewBox="0 0 40 40" fill="none" xmlns="http://www.w3.org/2000/svg">
<path d="M34.1421 5.85781C30.3646 2.08031 25.3422 0 20 0C14.6579 0 9.63539 2.08031 5.85781 5.85781C2.08031 9.63539 0 14.6579 0 20C0 25.3422 2.08031 30.3646 5.85781 34.1422C9.63539 37.9196 14.6578 40 20 40C25.3422 40 30.3646 37.9197 34.1421 34.1422C37.9196 30.3646 40 25.3422 40 20C40 14.6578 37.9196 9.63539 34.1421 5.85781ZM5.78961 30.4848C3.55273 27.4663 2.34375 23.8261 2.34375 20C2.34375 15.2839 4.18031 10.85 7.51508 7.51508C10.85 4.18031 15.2839 2.34375 20 2.34375C24.7161 2.34375 29.15 4.18031 32.4848 7.51508C32.5553 7.58555 32.6241 7.65719 32.6933 7.72867L27.558 12.0723V8.59398H12.442V16.8587C12.442 19.1527 13.5753 21.1867 15.3114 22.4309L5.78961 30.4848ZM25.2052 17.1321C25.0632 19.4907 23.1002 21.3663 20.7067 21.3663H20.1994L25.2052 17.1321ZM17.1887 20.843C15.7609 20.0858 14.7857 18.5843 14.7857 16.8587V15.7705H23.1856L17.1887 20.843ZM14.7857 13.4268V10.9377H25.2142V13.4268H14.7857ZM32.4848 32.4849C29.15 35.8197 24.7161 37.6562 20 37.6562C15.2838 37.6562 10.85 35.8197 7.51508 32.4848C7.44461 32.4144 7.37578 32.3427 7.30672 32.2713L17.6612 23.513C18.039 23.6057 18.4289 23.667 18.8281 23.6939V31.406H15.2717V33.7498H24.7284V31.406H21.1719V23.6939C24.7335 23.4539 27.558 20.4802 27.558 16.8587V15.142L34.2104 9.51523C36.4473 12.5337 37.6562 16.1739 37.6562 20C37.6562 24.7162 35.8197 29.15 32.4848 32.4849Z" fill="white"/>
</svg>
