<svg width="35" height="19" viewBox="0 0 35 19" fill="none" xmlns="http://www.w3.org/2000/svg">
<path d="M32.5133 12.928L32.0193 12.8507L32.0192 12.8513L32.5133 12.928ZM32.9853 9.911L33.4793 9.98828L33.4794 9.98779L32.9853 9.911ZM32.7423 8.958L33.1392 8.65384L33.1388 8.65336L32.7423 8.958ZM31.8873 8.478L31.9413 7.98092L31.9412 7.98091L31.8873 8.478ZM24.6263 7.691L24.5711 8.18794L24.5724 8.18809L24.6263 7.691ZM24.3583 7.577L24.0366 7.95976L24.0392 7.96194L24.3583 7.577ZM18.3013 2.486L18.623 2.10324L18.6228 2.10307L18.3013 2.486ZM5.84632 2.601L5.43421 2.31787L5.434 2.31817L5.84632 2.601ZM2.21832 7.89L1.806 7.60717L1.80594 7.60727L2.21832 7.89ZM2.01532 8.788L2.50935 8.71093L2.50918 8.70986L2.01532 8.788ZM2.66132 12.929L2.1673 13.0061L2.16738 13.0066L2.66132 12.929ZM1.67332 13.084L1.1793 13.1611L1.17931 13.1612L1.67332 13.084ZM1.02732 8.943L1.52135 8.86593L1.5213 8.8656L1.02732 8.943ZM1.39432 7.324L1.80657 7.60693L1.80664 7.60683L1.39432 7.324ZM5.02232 2.035L5.43464 2.31783L5.43479 2.31762L5.02232 2.035ZM18.9443 1.722L18.6221 2.10435L18.6226 2.10474L18.9443 1.722ZM24.8843 6.715L24.5626 7.09774L24.6791 7.19568L24.8304 7.21209L24.8843 6.715ZM31.9933 7.486L31.9394 7.98309L31.9401 7.98316L31.9933 7.486ZM33.5353 8.352L33.9322 8.04789L33.9318 8.04738L33.5353 8.352ZM33.9733 10.068L34.4673 10.1453L34.4674 10.1445L33.9733 10.068ZM33.5013 13.085L33.0073 13.0077L33.0073 13.0081L33.5013 13.085ZM23.4383 14.484H12.0083V15.484H23.4383V14.484ZM12.0083 14.484H11.0083C11.0083 15.0361 11.4562 15.484 12.0083 15.484V14.484ZM12.0083 14.484V13.484C11.4562 13.484 11.0083 13.9319 11.0083 14.484H12.0083ZM12.0083 14.484H23.4383V13.484H12.0083V14.484ZM23.4383 14.484H24.4383C24.4383 13.9319 23.9905 13.484 23.4383 13.484V14.484ZM23.4383 14.484V15.484C23.9921 15.484 24.4383 15.0355 24.4383 14.484H23.4383ZM9.28832 17.205C7.78836 17.205 6.56732 15.9848 6.56732 14.484H5.56732C5.56732 16.5372 7.23628 18.205 9.28832 18.205V17.205ZM6.56732 14.484C6.56732 12.9831 7.78747 11.763 9.28832 11.763V10.763C7.23518 10.763 5.56732 12.4309 5.56732 14.484H6.56732ZM9.28832 11.763C10.7892 11.763 12.0093 12.9831 12.0093 14.484H13.0093C13.0093 12.4309 11.3415 10.763 9.28832 10.763V11.763ZM12.0093 14.484C12.0093 15.9848 10.7883 17.205 9.28832 17.205V18.205C11.3404 18.205 13.0093 16.5372 13.0093 14.484H12.0093ZM9.28832 11.763C7.78718 11.763 6.56732 12.9829 6.56732 14.484H7.56732C7.56732 13.5351 8.33947 12.763 9.28832 12.763V11.763ZM6.56732 14.484C6.56732 15.9851 7.78718 17.205 9.28832 17.205V16.205C8.33947 16.205 7.56732 15.4329 7.56732 14.484H6.56732ZM9.28832 17.205C10.7898 17.205 12.0083 15.9848 12.0083 14.484H11.0083C11.0083 15.4332 10.2369 16.205 9.28832 16.205V17.205ZM12.0083 14.484C12.0083 12.9831 10.7898 11.763 9.28832 11.763V12.763C10.2369 12.763 11.0083 13.5348 11.0083 14.484H12.0083ZM26.1593 17.205C24.6594 17.205 23.4383 15.9848 23.4383 14.484H22.4383C22.4383 16.5372 24.1073 18.205 26.1593 18.205V17.205ZM23.4383 14.484C23.4383 12.9831 24.6585 11.763 26.1593 11.763V10.763C24.1062 10.763 22.4383 12.4309 22.4383 14.484H23.4383ZM26.1593 11.763C27.6602 11.763 28.8803 12.9831 28.8803 14.484H29.8803C29.8803 12.4309 28.2125 10.763 26.1593 10.763V11.763ZM28.8803 14.484C28.8803 15.9848 27.6593 17.205 26.1593 17.205V18.205C28.2114 18.205 29.8803 16.5372 29.8803 14.484H28.8803ZM26.1593 11.763C24.6582 11.763 23.4383 12.9829 23.4383 14.484H24.4383C24.4383 13.5351 25.2105 12.763 26.1593 12.763V11.763ZM23.4383 14.484C23.4383 15.9851 24.6582 17.205 26.1593 17.205V16.205C25.2105 16.205 24.4383 15.4329 24.4383 14.484H23.4383ZM26.1593 17.205C27.6605 17.205 28.8803 15.9851 28.8803 14.484H27.8803C27.8803 15.4329 27.1082 16.205 26.1593 16.205V17.205ZM28.8803 14.484C28.8803 12.9829 27.6605 11.763 26.1593 11.763V12.763C27.1082 12.763 27.8803 13.5351 27.8803 14.484H28.8803ZM23.4423 14.484H12.0103V15.484H23.4423V14.484ZM12.0103 14.484H11.0103C11.0103 15.0361 11.4582 15.484 12.0103 15.484V14.484ZM12.0103 14.484V13.484C11.4582 13.484 11.0103 13.9319 11.0103 14.484H12.0103ZM12.0103 14.484H23.4433V13.484H12.0103V14.484ZM23.4433 14.484H24.4433C24.4433 13.9319 23.9955 13.484 23.4433 13.484V14.484ZM23.4433 14.484C23.4433 14.4848 23.4433 14.4843 23.4436 14.4836C23.4438 14.4832 23.4438 14.4833 23.4434 14.4837C23.443 14.4841 23.4428 14.4841 23.443 14.4841C23.4435 14.4838 23.4436 14.484 23.4423 14.484V15.484C23.9948 15.484 24.4433 15.0368 24.4433 14.484H23.4433ZM31.2813 14.484H28.8773V15.484H31.2813V14.484ZM28.8773 14.484H27.8773C27.8773 15.0361 28.3252 15.484 28.8773 15.484V14.484ZM28.8773 14.484V13.484C28.3252 13.484 27.8773 13.9319 27.8773 14.484H28.8773ZM28.8773 14.484H31.2813V13.484H28.8773V14.484ZM31.2813 14.484C32.1471 14.484 32.8746 13.8601 33.0074 13.0047L32.0192 12.8513C31.962 13.2199 31.6536 13.484 31.2813 13.484V14.484ZM33.0073 13.0053L33.4793 9.98828L32.4913 9.83372L32.0193 12.8507L33.0073 13.0053ZM33.4794 9.98779C33.5533 9.5121 33.4324 9.03642 33.1392 8.65385L32.3455 9.26216C32.4723 9.42758 32.5233 9.6279 32.4913 9.83421L33.4794 9.98779ZM33.1388 8.65336C32.8465 8.2729 32.4176 8.0326 31.9413 7.98092L31.8334 8.97508C32.0391 8.9974 32.2202 9.0991 32.3458 9.26264L33.1388 8.65336ZM31.9412 7.98091L24.6802 7.19391L24.5724 8.18809L31.8334 8.97509L31.9412 7.98091ZM24.6815 7.19406C24.6808 7.19398 24.6793 7.19358 24.6774 7.19206L24.0392 7.96194C24.1894 8.08642 24.3738 8.16602 24.5711 8.18794L24.6815 7.19406ZM24.68 7.19424L18.623 2.10324L17.9796 2.86876L24.0366 7.95975L24.68 7.19424ZM18.6228 2.10307C18.1586 1.71333 17.5687 1.499 16.9633 1.499V2.499C17.3339 2.499 17.696 2.63067 17.9798 2.86893L18.6228 2.10307ZM16.9633 1.499H6.98832V2.499H16.9633V1.499ZM6.98832 1.499C6.36592 1.499 5.78608 1.80569 5.43421 2.31787L6.25844 2.88412C6.42457 2.64231 6.69672 2.499 6.98832 2.499V1.499ZM5.434 2.31817L1.806 7.60717L2.63064 8.17283L6.25864 2.88383L5.434 2.31817ZM1.80594 7.60727C1.55279 7.9765 1.45144 8.42359 1.52147 8.86614L2.50918 8.70986C2.4792 8.52041 2.52185 8.3315 2.63071 8.17273L1.80594 7.60727ZM1.5213 8.86507L2.1673 13.0061L3.15535 12.8519L2.50935 8.71093L1.5213 8.86507ZM2.16738 13.0066C2.30143 13.8598 3.02809 14.485 3.89432 14.485V13.485C3.52255 13.485 3.21322 13.2202 3.15526 12.8514L2.16738 13.0066ZM3.89432 14.485H6.56232V13.485H3.89432V14.485ZM6.56232 14.485H7.56232C7.56232 13.9329 7.11446 13.485 6.56232 13.485V14.485ZM6.56232 14.485V15.485C7.11446 15.485 7.56232 15.0371 7.56232 14.485H6.56232ZM6.56232 14.485H3.89532V15.485H6.56232V14.485ZM3.89532 14.485C3.02649 14.485 2.30128 13.8643 2.16733 13.0068L1.17931 13.1612C1.38937 14.5057 2.53415 15.485 3.89532 15.485V14.485ZM2.16735 13.0069L1.52135 8.86593L0.533298 9.02007L1.1793 13.1611L2.16735 13.0069ZM1.5213 8.8656C1.45202 8.42348 1.55297 7.97645 1.80657 7.60693L0.982074 7.04107C0.583679 7.62155 0.424625 8.32651 0.53335 9.0204L1.5213 8.8656ZM1.80664 7.60683L5.43464 2.31783L4.61 1.75217L0.982004 7.04117L1.80664 7.60683ZM5.43479 2.31762C5.78531 1.80604 6.3668 1.5 6.98832 1.5V0.5C6.03784 0.5 5.14733 0.967962 4.60986 1.75238L5.43479 2.31762ZM6.98832 1.5H16.9643V0.5H6.98832V1.5ZM16.9643 1.5C17.5708 1.5 18.1596 1.71459 18.6221 2.10435L19.2665 1.33965C18.623 0.797413 17.8058 0.5 16.9643 0.5V1.5ZM18.6226 2.10474L24.5626 7.09774L25.206 6.33226L19.266 1.33926L18.6226 2.10474ZM24.8304 7.21209L31.9394 7.98309L32.0472 6.98891L24.9382 6.21792L24.8304 7.21209ZM31.9401 7.98316C32.4206 8.03455 32.8437 8.27254 33.1388 8.65662L33.9318 8.04738C33.4709 7.44746 32.8001 7.06945 32.0465 6.98884L31.9401 7.98316ZM33.1384 8.65611C33.4324 9.03976 33.5534 9.51226 33.4792 9.99155L34.4674 10.1445C34.5833 9.39573 34.3922 8.64824 33.9322 8.04789L33.1384 8.65611ZM33.4793 9.99072L33.0073 13.0077L33.9953 13.1623L34.4673 10.1453L33.4793 9.99072ZM33.0073 13.0081C32.8742 13.8632 32.1502 14.484 31.2813 14.484V15.484C32.6424 15.484 33.7864 14.5048 33.9954 13.1619L33.0073 13.0081ZM20.2663 7.58H5.79832V8.58H20.2663V7.58ZM5.79832 7.58H4.79832C4.79832 8.13214 5.24618 8.58 5.79832 8.58V7.58ZM5.79832 7.58V6.58C5.24618 6.58 4.79832 7.02786 4.79832 7.58H5.79832ZM5.79832 7.58H20.2663V6.58H5.79832V7.58ZM20.2663 7.58H21.2663C21.2663 7.02786 20.8185 6.58 20.2663 6.58V7.58ZM20.2663 7.58V8.58C20.8185 8.58 21.2663 8.13214 21.2663 7.58H20.2663Z" fill="white"/>
</svg>
