<svg width="16" height="16" viewBox="0 0 16 16" fill="none" xmlns="http://www.w3.org/2000/svg"><path d="M14.047 6.652c.63-.905.953-1.792.953-2.646 0-1.502-1.157-2.747-2.637-2.97-.867-.119-1.599.137-2.33.564a1.267 1.267 0 0 1-.204.12.509.509 0 0 0-.17-.069.511.511 0 0 0-.358.086.453.453 0 0 0-.187.324c-.034.256.136.512.391.546h.017a.511.511 0 0 0 .358-.085.453.453 0 0 0 .187-.325.45.45 0 0 0-.034-.256 3.093 3.093 0 0 1 1.871-.631c1.514.017 2.739 1.143 2.739 2.696 0 .768-.306 1.588-.902 2.44l-.323-.238-5.392 7.031-5.444-7.031-.323.239c-.596-.853-.902-1.673-.902-2.44 0-1.537 1.225-2.68 2.739-2.697.663 0 1.344.222 1.871.631-.034.086-.05.171-.034.256a.49.49 0 0 0 .187.325.533.533 0 0 0 .358.085h.017a.491.491 0 0 0 .204-.87.533.533 0 0 0-.358-.086.509.509 0 0 0-.17.068c-.05-.034-.119-.068-.204-.119-.731-.444-1.463-.7-2.33-.563-1.463.222-2.62 1.468-2.637 2.97 0 .853.323 1.74.953 2.645l-.358.256 6.345 8.004.063.088 6.402-8.075-.358-.273z" fill="#94A8B2" stroke="#94A8B2" stroke-width=".6"/></svg>