<svg width="12" height="15" viewBox="0 0 12 15" fill="none" xmlns="http://www.w3.org/2000/svg"><path fill-rule="evenodd" clip-rule="evenodd" d="M11.077 13.053V1.614a.7.7 0 0 0-.702-.697h-8.75a.7.7 0 0 0-.702.697v11.439a.7.7 0 0 0 .702.697h8.75a.7.7 0 0 0 .702-.697zM10.375 0C11.27 0 12 .724 12 1.614v11.439c0 .89-.73 1.614-1.625 1.614h-8.75A1.622 1.622 0 0 1 0 13.053V1.614C0 .724.73 0 1.626 0h8.749zM2 8h8V4H2v4zm.308-5.097H6a.46.46 0 0 0 .462-.458A.46.46 0 0 0 6 1.987H2.308a.46.46 0 0 0-.462.458.46.46 0 0 0 .462.458zM2 12.667h3.333v-2H2v2zM2.267 10H4.4c.147 0 .267-.15.267-.333 0-.185-.12-.334-.267-.334H2.267c-.148 0-.267.15-.267.334 0 .184.12.333.267.333zm4.4 2.667H10v-2H6.667v2zm.2-2.667h1.6c.11 0 .2-.15.2-.333 0-.185-.09-.334-.2-.334h-1.6c-.11 0-.2.15-.2.334 0 .184.09.333.2.333z" fill="#94A8B2"/></svg>