<svg width="16" height="16" viewBox="0 0 16 16" fill="none" xmlns="http://www.w3.org/2000/svg"><path fill-rule="evenodd" clip-rule="evenodd" d="M7.667 15.333A7.667 7.667 0 1 0 7.667 0a7.667 7.667 0 0 0 0 15.333zm-2.968-3.491c.165-.053.33-.104.498-.15.047-.013.097-.024.15-.036.25-.058.542-.124.639-.375 0 0 .156-.472.092-1.29 0 0-.479-.072-.414-1.47 0 0-.387.318-.479-.472 0 0-.1-.544-.174-.644 0 0-.203-.536.165-.463 0 0-.064-1.053-.11-1.29-.04-.202-.017-.44.02-.641.031-.176.087-.352.189-.502.08-.118.204-.192.326-.266a1.99 1.99 0 0 0 .16-.103l.18-.135c.147-.111.294-.223.453-.316a3.39 3.39 0 0 1 .272-.142.95.95 0 0 1 .115-.034c.08-.02.173-.045.19-.066 0 0 .082-.109.257-.109a3.731 3.731 0 0 1 1.065.103c.133.036.267.093.4.149.066.028.133.056.2.082.143.055.281.127.408.214.374.257.582.625.641 1.068 0 0 .12.89-.156 1.924 0 0 .497-.254.156.808 0 0-.092.318-.11.49 0 0-.028.454-.377.237 0 0 .027 1.506-.47 1.57 0 0-.055 1.37.267 1.516 0 0 .304.227 1.307.417 0 0 .843.277 1.441.552A6.642 6.642 0 0 1 7.744 14a6.636 6.636 0 0 1-4.41-1.67c.45-.175.905-.34 1.365-.488z" fill="#94A8B2"/></svg>