<svg width="131" height="112" viewBox="0 0 131 112" fill="none" xmlns="http://www.w3.org/2000/svg">
<path d="M0 12.88C0 8.32407 0 6.04611 0.900692 4.3122C1.6597 2.85106 2.85106 1.6597 4.3122 0.900692C6.04611 0 8.32407 0 12.88 0H118.12C122.676 0 124.954 0 126.688 0.900692C128.149 1.6597 129.34 2.85106 130.099 4.3122C131 6.04611 131 8.32407 131 12.88V99.12C131 103.676 131 105.954 130.099 107.688C129.34 109.149 128.149 110.34 126.688 111.099C124.954 112 122.676 112 118.12 112H12.88C8.32407 112 6.04611 112 4.3122 111.099C2.85106 110.34 1.6597 109.149 0.900692 107.688C0 105.954 0 103.676 0 99.12V12.88Z" fill="#E7F5FF"/>
</svg>
