<svg width="48" height="48" viewBox="0 0 48 48" fill="none" xmlns="http://www.w3.org/2000/svg"><rect width="48" height="48" rx="8" fill="#F54A33"/><path d="M38.142 9.858A19.869 19.869 0 0 0 24 4 19.87 19.87 0 0 0 9.858 9.858 19.87 19.87 0 0 0 4 24a19.87 19.87 0 0 0 5.858 14.142A19.87 19.87 0 0 0 24 44c5.342 0 10.365-2.08 14.142-5.858A19.87 19.87 0 0 0 44 24a19.87 19.87 0 0 0-5.858-14.142zM9.79 34.485A17.525 17.525 0 0 1 6.344 24a17.54 17.54 0 0 1 5.171-12.485A17.541 17.541 0 0 1 24 6.344a17.54 17.54 0 0 1 12.485 5.171c.07.07.14.142.208.214l-5.135 4.343v-3.478H16.442v8.265a6.847 6.847 0 0 0 2.87 5.572L9.79 34.485zm19.415-13.353a4.513 4.513 0 0 1-4.498 4.234h-.508l5.006-4.234zm-8.016 3.711a4.511 4.511 0 0 1-2.403-3.984V19.77h8.4l-5.997 5.073zm-2.403-7.416v-2.49h10.428v2.49H18.786zm17.699 19.058A17.54 17.54 0 0 1 24 41.656a17.54 17.54 0 0 1-12.485-5.171c-.07-.07-.14-.142-.208-.214l10.354-8.758c.378.093.768.154 1.167.18v7.713h-3.556v2.344h9.456v-2.344h-3.556v-7.712c3.561-.24 6.386-3.214 6.386-6.835v-1.717l6.652-5.627A17.525 17.525 0 0 1 41.656 24a17.54 17.54 0 0 1-5.171 12.485z" fill="#fff"/></svg>