<svg width="15" height="16" viewBox="0 0 15 16" fill="none" xmlns="http://www.w3.org/2000/svg"><path d="M13.411 9.861l-1.183-1.183-5.325-5.325a2.51 2.51 0 0 0-3.55 3.55l5.325 5.326a.558.558 0 1 0 .789-.789L4.142 6.114a1.394 1.394 0 1 1 1.972-1.972l5.326 5.325 1.184 1.183a2.51 2.51 0 0 1-3.552 3.55l-.986-.986-5.522-5.522-.394-.395A3.626 3.626 0 0 1 7.297 2.17l5.917 5.916a.558.558 0 0 0 .789-.789L8.086 1.381a4.741 4.741 0 0 0-6.705 6.705l5.916 5.917.988.986a3.626 3.626 0 0 0 5.126-5.128z" fill="#94A8B2"/></svg>