<svg width="48" height="48" viewBox="0 0 48 48" fill="none" xmlns="http://www.w3.org/2000/svg"><rect width="48" height="48" rx="8" fill="#F5CA33"/><path d="M18.508 29.484a.5.5 0 0 0 .5.5h11.43a.5.5 0 0 0 .5-.5m-12.43 0a.5.5 0 0 1 .5-.5h11.43a.5.5 0 0 1 .5.5m-12.43 0a2.222 2.222 0 0 1-2.22 2.221 2.223 2.223 0 0 1-2.22-2.221c0-1.225.995-2.221 2.22-2.221s2.22.996 2.22 2.221zm12.43 0c0-1.225.996-2.221 2.221-2.221s2.221.996 2.221 2.221a2.223 2.223 0 0 1-2.22 2.221 2.223 2.223 0 0 1-2.222-2.221zm-14.65 3.221a3.224 3.224 0 0 1-3.22-3.221 3.223 3.223 0 0 1 3.22-3.221 3.223 3.223 0 0 1 3.221 3.221 3.224 3.224 0 0 1-3.22 3.221zm16.871 0a3.224 3.224 0 0 1-3.22-3.221 3.223 3.223 0 0 1 3.22-3.221 3.223 3.223 0 0 1 3.221 3.221 3.224 3.224 0 0 1-3.22 3.221zm-2.717-2.721H19.01a.5.5 0 0 1 0-1h11.433a.5.5 0 1 1 0 1zm7.84 0h-2.405a.5.5 0 0 1 0-1h2.404a1.24 1.24 0 0 0 1.232-1.056l.472-3.017a1.239 1.239 0 0 0-.243-.953 1.24 1.24 0 0 0-.855-.48l-7.26-.787a.508.508 0 0 1-.269-.114l-6.057-5.091a2.086 2.086 0 0 0-1.338-.487h-9.975c-.457 0-.883.225-1.142.602L9.218 22.89a1.238 1.238 0 0 0-.203.898l.646 4.141a1.243 1.243 0 0 0 1.233 1.056h2.668a.5.5 0 0 1 0 1h-2.667c-1.115 0-2.05-.8-2.222-1.901l-.646-4.141a2.24 2.24 0 0 1 .367-1.619l3.628-5.289A2.383 2.383 0 0 1 13.988 16h9.976c.724 0 1.427.256 1.98.722l5.94 4.993 7.11.771a2.226 2.226 0 0 1 1.541.866c.377.492.533 1.102.438 1.716l-.472 3.017a2.235 2.235 0 0 1-2.22 1.899zM27.265 23.08H12.798a.5.5 0 0 1 0-1h14.468a.5.5 0 0 1 0 1z" stroke="#fff"/></svg>