<svg width="18" height="17" viewBox="0 0 18 17" fill="none" xmlns="http://www.w3.org/2000/svg"><path fill-rule="evenodd" clip-rule="evenodd" d="M9 1.465C6.227-1.018 2.253-.182.837 2.763c-.75 1.562-.716 3.604.46 5.86 1.17 2.245 3.478 4.725 7.336 7.267l.367.242.367-.242c3.858-2.542 6.166-5.022 7.336-7.268 1.175-2.255 1.21-4.297.46-5.859C15.746-.182 11.772-1.018 9 1.465zm0 13.067c3.517-2.377 5.525-4.615 6.52-6.526 1.026-1.967.971-3.56.44-4.665C14.9 1.134 11.681.43 9.495 2.852L9 3.401l-.495-.549C6.319.43 3.099 1.134 2.039 3.341c-.53 1.105-.585 2.698.44 4.665.996 1.91 3.004 4.15 6.52 6.526z" fill="#94A8B2"/></svg>