<svg width="247" height="89" viewBox="0 0 247 89" fill="none" xmlns="http://www.w3.org/2000/svg"><path d="M154.03 88.049c-14.378 0-28.258-5.193-39.142-14.579-10.734-9.336-17.823-22.167-19.92-36.146l2.147-.35c4.194 27.86 28.657 48.878 56.915 48.878 29.157 0 53.721-21.818 57.166-50.725l2.196.25c-3.594 30.055-29.106 52.672-59.362 52.672zm54.32-80.082c.649-.1 1.048-.698.949-1.348-.05-.3-.2-.599-.45-.748-.249-.2-.549-.25-.898-.2-.65.1-1.099.749-.999 1.348.05.3.2.599.449.749.3.15.599.25.949.2z" fill="#2194D2"/><path d="M203.707 23.145c-5.193-4.094-7.938-8.188-7.938-11.782 0-3.745 2.995-6.49 6.69-6.54 1.897 0 3.744.698 5.142 1.996.799-.699.25-.849-.549-1.348-1.797-1.048-3.595-1.697-5.692-1.398-3.594.55-6.39 3.595-6.39 7.24 0 3.894 2.746 8.088 8.238 12.431l.499-.599zm11.932-15.178c-.649-.1-1.048-.698-.948-1.348.049-.3.199-.599.449-.748.249-.2.549-.25.899-.2.649.1 1.098.749.998 1.348-.05.3-.2.599-.449.749-.25.15-.599.25-.949.2z" fill="#2194D2"/><path d="M220.332 23.145c5.192-4.144 7.888-8.188 7.888-11.782 0-3.745-2.995-6.49-6.69-6.54a7.554 7.554 0 0 0-5.142 1.996c-.799-.699-.25-.849.549-1.348 1.798-1.048 3.595-1.697 5.692-1.398 3.594.55 6.39 3.595 6.39 7.24 0 3.894-2.746 8.088-8.238 12.431l-.449-.599zM84.633 11.862a17.516 17.516 0 0 0-3.444-.35c-2.147 0-2.796.8-2.796 2.896v3.694h5.841l-.25 1.948h-5.641v17.074h-2.247V20.1h-3.545v-1.947h3.545v-3.994c0-3.145 1.897-4.593 4.943-4.593 1.098 0 2.796.2 3.894.55l-.3 1.747zm35.398 8.088c-1.997.849-4.194 2.296-5.991 3.495v13.68h-2.247V18.101h2.047l.1 2.896c2.047-1.348 4.044-2.596 5.841-3.295l.25 2.247zm28.258 17.174V21.747c0-1.398-.749-1.897-2.047-1.897-1.797 0-4.943.948-7.289 2.197v15.127h-2.247V21.747c0-1.398-.749-1.897-2.047-1.897-1.548 0-4.942.948-7.289 2.197v15.127h-2.247V18.102h1.997l.15 1.698c2.047-.999 5.442-2.097 7.739-2.097 2.047 0 3.145.799 3.694 2.097 2.197-.999 5.642-2.097 7.988-2.097 2.946 0 4.044 1.698 4.044 4.294v15.127h-2.446zm21.418 0h-1.947l-.15-1.498c-1.847 1.149-3.944 1.898-6.44 1.898-3.345 0-4.943-1.898-4.943-5.293 0-4.044 1.847-5.292 5.592-5.292h5.642v-3.694c0-2.596-1.348-3.495-4.494-3.495-1.897 0-3.844.25-5.641.65l-.35-1.898c1.498-.45 3.894-.749 5.841-.749 4.943 0 6.89 1.947 6.89 5.492v13.88zm-7.838-8.138c-2.596 0-3.395.8-3.395 3.295 0 2.247.449 3.246 3.145 3.246 1.897 0 4.094-.75 5.842-1.947v-4.594h-5.592zm23.864 7.789c-1.098.45-2.596.749-3.994.749-2.995 0-4.293-1.099-4.293-4.094V20.1h-3.695v-1.948h3.695V13.66l2.246-.3v4.793h5.842l-.25 1.947h-5.592v13.13c0 1.698.25 2.397 2.197 2.397 1.049 0 2.247-.2 3.395-.55l.449 1.698zm4.694-22.267v-4.194h2.246v4.194h-2.246zm0 22.616V18.102h2.246v19.022h-2.246zm44.833-1.597c1.947 0 4.144-.4 5.991-.899l.399 1.847c-1.747.65-4.243 1.049-6.54 1.049-5.342 0-7.089-2.796-7.089-6.89v-5.991c0-3.895 1.747-6.89 7.089-6.89 5.342 0 6.89 2.995 6.89 6.89v3.694h-11.733v2.397c.05 3.345 1.199 4.793 4.993 4.793zm-4.943-9.237h9.536v-1.697c0-3.195-1.148-4.893-4.693-4.893s-4.843 1.698-4.843 4.893v1.697zM96.665 38.223a10.718 10.718 0 0 1-10.734-10.735 10.718 10.718 0 0 1 10.734-10.733A10.718 10.718 0 0 1 107.4 27.488a10.718 10.718 0 0 1-10.735 10.735zm0-19.272c-4.693 0-8.537 3.845-8.537 8.537 0 4.694 3.844 8.538 8.537 8.538 4.694 0 8.538-3.844 8.538-8.538 0-4.692-3.844-8.537-8.538-8.537z" fill="#2194D2"/><path d="M212.094 33.929l-13.33-17.225-2.346 1.698 15.676 19.72V33.93z" fill="#60AF46"/><path d="M211.895 33.929l13.38-17.225 2.296 1.698-15.676 19.72V33.93zm-195.81 3.195H6V11.113h10.085c6.39 0 8.787 3.245 8.787 6.74v12.481c0 3.545-2.396 6.79-8.787 6.79zM18.981 19.5c0-2.047-.7-3.145-3.645-3.145h-3.495v15.577h3.495c2.946 0 3.645-1.148 3.645-3.145V19.5zm29.905 10.085c0 3.944-2.745 7.989-10.085 7.989-7.339 0-10.035-4.044-10.035-7.989V18.701c0-3.944 2.746-7.988 10.085-7.988 7.34 0 10.085 4.044 10.085 7.989v10.883h-.05zm-5.841-10.384c0-2.047-1.298-3.295-4.194-3.295-2.945 0-4.194 1.248-4.194 3.295v9.835c0 2.047 1.299 3.295 4.194 3.295 2.946 0 4.194-1.248 4.194-3.295v-9.835zm15.627 9.436c0 2.247.749 3.594 3.645 3.594 1.897 0 4.443-.25 6.74-.649l.798 5.093c-2.596.55-4.942.799-7.539.799-6.54 0-9.485-3.245-9.485-7.988V18.7c0-4.742 2.945-7.988 9.485-7.988 2.597 0 4.943.25 7.54.8l-.8 5.092c-2.246-.4-4.842-.65-6.74-.65-2.895 0-3.644 1.349-3.644 3.595v9.087zm37.993 3.943a5.092 5.092 0 1 0 0-10.184 5.092 5.092 0 0 0 0 10.185z" fill="#60AF46"/></svg>