<svg width="48" height="48" viewBox="0 0 48 48" fill="none" xmlns="http://www.w3.org/2000/svg"><rect width="48" height="48" rx="8" fill="#F54A33"/><path fill-rule="evenodd" clip-rule="evenodd" d="M38.142 9.858A19.869 19.869 0 0 0 24 4 19.87 19.87 0 0 0 9.858 9.858 19.87 19.87 0 0 0 4 24a19.87 19.87 0 0 0 5.858 14.142A19.87 19.87 0 0 0 24 44c5.342 0 10.365-2.08 14.142-5.858A19.87 19.87 0 0 0 44 24a19.87 19.87 0 0 0-5.858-14.142zM24.2 25.366l5.006-4.234 2.353-1.99 6.652-5.627A17.525 17.525 0 0 1 41.656 24a17.54 17.54 0 0 1-5.171 12.485A17.54 17.54 0 0 1 24 41.656a17.54 17.54 0 0 1-12.664-5.354l-.03-.03 10.355-8.759 2.538-2.147zM6.344 24c0 3.826 1.209 7.466 3.446 10.485l9.521-8.054 1.878-1.588 5.997-5.073 4.372-3.698 5.135-4.343-.03-.031c-.059-.061-.118-.123-.178-.183A17.54 17.54 0 0 0 24 6.344a17.54 17.54 0 0 0-12.485 5.171A17.541 17.541 0 0 0 6.344 24z" fill="#fff"/><path d="M23.798 8c-.837 0-1.6.339-2.168.891a1.619 1.619 0 0 0-.267-.122c-.866-.305-1.807.182-2.099 1.085-.15.465-.264 6.232-.264 6.232s1.94-2.75 2.102-2.988c.566.933 1.562 1.554 2.696 1.554 1.757 0 3.187-1.492 3.187-3.326S25.555 8 23.798 8zm0 4.828c-.794 0-1.44-.674-1.44-1.502 0-.125.016-.246.043-.362l.002-.006c.013-.039.024-.078.034-.118.194-.59.73-1.015 1.36-1.015.794 0 1.44.673 1.44 1.501 0 .828-.646 1.502-1.44 1.502zM32 25.156c0-2.342-1.492-4.326-3.536-4.973.052-.191.078-.384.08-.582.003-.652-.275-1.277-.83-1.855l-.048-.05-2.786-2.115h-.284c-2.059 0-3.763 1.612-3.965 3.756l-1.125 12.749h3.364V39h1.748v-6.914h5.078l-.411-2.3c1.65-.876 2.715-2.649 2.715-4.63zm-3.975 3.206l-.729.248.295 1.65h-6.168l.95-10.75c.037-.407.173-.78.38-1.095v2.366c0 2.88 2.245 5.222 5.004 5.222h.926v-1.825h-.926c-1.795 0-3.255-1.524-3.255-3.398v-3.23l2.02 1.533c.178.196.274.374.273.506 0 .11-.068.308-.384.63l-1.54 1.566h2.15c1.781 0 3.23 1.512 3.23 3.371 0 1.463-.894 2.752-2.226 3.206z" fill="#fff"/></svg>