<svg width="14" height="15" viewBox="0 0 14 15" fill="none" xmlns="http://www.w3.org/2000/svg"><path fill-rule="evenodd" clip-rule="evenodd" d="M11.274 6.133c0 3.02-2.45 5.467-5.47 5.467a5.468 5.468 0 0 1-5.47-5.467A5.468 5.468 0 0 1 5.803.667a5.468 5.468 0 0 1 5.47 5.466zm-9.573 0c0 2.265 1.837 4.1 4.103 4.1a4.101 4.101 0 0 0 4.102-4.1c0-2.264-1.837-4.1-4.102-4.1a4.101 4.101 0 0 0-4.103 4.1z" fill="#94A8B2"/><path fill-rule="evenodd" clip-rule="evenodd" d="M12.487 14.12a.684.684 0 0 0 .992-.94l-3.76-3.957a.684.684 0 0 0-.992.941l3.76 3.957z" fill="#94A8B2"/></svg>