<svg width="48" height="48" viewBox="0 0 48 48" fill="none" xmlns="http://www.w3.org/2000/svg"><rect x="1" y="1" width="46" height="46" rx="7" fill="#fff"/><rect x="1" y="1" width="46" height="46" rx="7" stroke="#338DF5" stroke-width="2"/><rect x="1" y="1" width="46" height="46" rx="7" stroke="#2194D2" stroke-width="2"/><rect x="1" y="1" width="46" height="46" rx="7" stroke="#2393D2" stroke-width="2"/><path d="M12.596 26.738l6.718-6.717 7.778 7.778-6.718 6.718a5.5 5.5 0 0 1-7.778-7.779z" fill="#338DF5"/><path d="M12.596 26.738l6.718-6.717 7.778 7.778-6.718 6.718a5.5 5.5 0 0 1-7.778-7.779z" fill="#2194D2"/><path d="M12.596 26.738l6.718-6.717 7.778 7.778-6.718 6.718a5.5 5.5 0 0 1-7.778-7.779z" fill="#2393D2"/><path d="M12.596 26.738l6.718-6.717 7.778 7.778-6.718 6.718a5.5 5.5 0 0 1-7.778-7.779z" stroke="#338DF5"/><path d="M12.596 26.738l6.718-6.717 7.778 7.778-6.718 6.718a5.5 5.5 0 0 1-7.778-7.779z" stroke="#2194D2"/><path d="M12.596 26.738l6.718-6.717 7.778 7.778-6.718 6.718a5.5 5.5 0 0 1-7.778-7.779z" stroke="#2393D2"/><path d="M12.95 27.092l6.364-6.364 7.07 7.071-6.363 6.364a5 5 0 0 1-7.071-7.071zm14.849-.707l-7.071-7.071 6.364-6.364a5 5 0 1 1 7.071 7.07l-6.364 6.365z" stroke="#338DF5" stroke-width="2"/><path d="M12.95 27.092l6.364-6.364 7.07 7.071-6.363 6.364a5 5 0 0 1-7.071-7.071zm14.849-.707l-7.071-7.071 6.364-6.364a5 5 0 1 1 7.071 7.07l-6.364 6.365z" stroke="#2194D2" stroke-width="2"/><path d="M12.95 27.092l6.364-6.364 7.07 7.071-6.363 6.364a5 5 0 0 1-7.071-7.071zm14.849-.707l-7.071-7.071 6.364-6.364a5 5 0 1 1 7.071 7.07l-6.364 6.365z" stroke="#2393D2" stroke-width="2"/></svg>