<svg width="11" height="16" viewBox="0 0 11 16" fill="none" xmlns="http://www.w3.org/2000/svg"><path d="M6 .282l2.62 2.941a.446.446 0 0 1-.057.65.498.498 0 0 1-.313.11.494.494 0 0 1-.37-.163L5.984 1.693v8.308a.474.474 0 0 1-.485.462.474.474 0 0 1-.485-.462V1.7L3.12 3.825a.496.496 0 0 1-.37.163.5.5 0 0 1-.314-.11.447.447 0 0 1-.057-.65L5.001.285a.474.474 0 0 0 .01-.012c.05-.06.227-.274.49-.274.266 0 .436.207.488.269l.01.013z" fill="#fff"/><path d="M1.78 16h7.44c.982 0 1.78-.759 1.78-1.693V7.23c0-.934-.798-1.693-1.78-1.693H7.916v.923h1.306c.445 0 .808.346.808.77v7.077c0 .425-.363.77-.808.77H1.779c-.445 0-.808-.345-.808-.77V7.23c0-.424.363-.77.808-.77h1.333v-.923H1.779C.798 5.537 0 6.296 0 7.23v7.077C0 15.241.798 16 1.78 16z" fill="#fff"/></svg>