<svg width="48" height="48" viewBox="0 0 48 48" fill="none" xmlns="http://www.w3.org/2000/svg">
<rect width="48" height="48" rx="8" fill="#F54A33"/>
<path d="M38.1421 9.85781C34.3646 6.08031 29.3422 4 24 4C18.6579 4 13.6354 6.08031 9.85781 9.85781C6.08031 13.6354 4 18.6579 4 24C4 29.3422 6.08031 34.3646 9.85781 38.1422C13.6354 41.9196 18.6578 44 24 44C29.3422 44 34.3646 41.9197 38.1421 38.1422C41.9196 34.3646 44 29.3422 44 24C44 18.6578 41.9196 13.6354 38.1421 9.85781ZM9.78961 34.4848C7.55273 31.4663 6.34375 27.8261 6.34375 24C6.34375 19.2839 8.18031 14.85 11.5151 11.5151C14.85 8.18031 19.2839 6.34375 24 6.34375C28.7161 6.34375 33.15 8.18031 36.4848 11.5151C36.5553 11.5855 36.6241 11.6572 36.6933 11.7287L31.558 16.0723V12.594H16.442V20.8587C16.442 23.1527 17.5753 25.1867 19.3114 26.4309L9.78961 34.4848ZM29.2052 21.1321C29.0632 23.4907 27.1002 25.3663 24.7067 25.3663H24.1994L29.2052 21.1321ZM21.1887 24.843C19.7609 24.0858 18.7857 22.5843 18.7857 20.8587V19.7705H27.1856L21.1887 24.843ZM18.7857 17.4268V14.9377H29.2142V17.4268H18.7857ZM36.4848 36.4849C33.15 39.8197 28.7161 41.6562 24 41.6562C19.2838 41.6562 14.85 39.8197 11.5151 36.4848C11.4446 36.4144 11.3758 36.3427 11.3067 36.2713L21.6612 27.513C22.039 27.6057 22.4289 27.667 22.8281 27.6939V35.406H19.2717V37.7498H28.7284V35.406H25.1719V27.6939C28.7335 27.4539 31.558 24.4802 31.558 20.8587V19.142L38.2104 13.5152C40.4473 16.5337 41.6562 20.1739 41.6562 24C41.6562 28.7162 39.8197 33.15 36.4848 36.4849Z" fill="white"/>
</svg>
