<svg width="15" height="16" viewBox="0 0 15 16" fill="none" xmlns="http://www.w3.org/2000/svg">
<path d="M13.4113 9.86122L12.2279 8.67787L6.90303 3.35323C5.92166 2.37921 4.33753 2.38215 3.35984 3.35984C2.38215 4.33753 2.37921 5.92166 3.35323 6.90303L8.67787 12.2293C8.89565 12.4472 9.2489 12.4472 9.46681 12.2293C9.68459 12.0114 9.68459 11.6582 9.46681 11.4403L4.14217 6.11409C3.59759 5.56951 3.59759 4.68675 4.14217 4.14217C4.68675 3.59759 5.56951 3.59759 6.11409 4.14217L11.4403 9.46681L12.6237 10.65C13.6041 11.6308 13.6037 13.2205 12.6231 14.2008C11.6423 15.1811 10.0527 15.1808 9.07228 14.2001L8.08638 13.2138L2.56441 7.69185L2.16988 7.29744C0.790918 5.87536 0.808434 3.60984 2.20907 2.20907C3.60984 0.808434 5.87536 0.790918 7.29744 2.16988L13.2138 8.08638C13.3548 8.22724 13.5602 8.28223 13.7526 8.23067C13.9452 8.1791 14.0956 8.02881 14.1472 7.83626C14.1987 7.64371 14.1436 7.43842 14.0028 7.29744L8.08638 1.38106C6.23351 -0.463351 3.23735 -0.459921 1.38878 1.38878C-0.459921 3.23735 -0.463351 6.23351 1.38106 8.08638L7.29744 14.0028L8.28481 14.989C9.70872 16.3567 11.9653 16.3339 13.3612 14.9376C14.7572 13.5413 14.7793 11.2848 13.4113 9.86122Z" fill="#94A8B2"/>
</svg>
