<svg width="48" height="48" viewBox="0 0 48 48" fill="none" xmlns="http://www.w3.org/2000/svg">
<rect width="48" height="48" rx="8" fill="#F5CA33"/>
<path d="M18.5083 29.484C18.5083 29.76 18.7323 29.984 19.0083 29.984H30.4383C30.7153 29.984 30.9383 29.76 30.9383 29.484M18.5083 29.484C18.5083 29.208 18.7323 28.984 19.0083 28.984H30.4383C30.7143 28.984 30.9383 29.208 30.9383 29.484M18.5083 29.484C18.5083 30.709 17.5133 31.705 16.2883 31.705C15.0633 31.705 14.0673 30.709 14.0673 29.484C14.0673 28.259 15.0633 27.263 16.2883 27.263C17.5133 27.263 18.5083 28.259 18.5083 29.484ZM30.9383 29.484C30.9383 28.259 31.9343 27.263 33.1593 27.263C34.3843 27.263 35.3803 28.259 35.3803 29.484C35.3803 30.709 34.3843 31.705 33.1593 31.705C31.9343 31.705 30.9383 30.709 30.9383 29.484ZM16.2883 32.705C14.5123 32.705 13.0673 31.261 13.0673 29.484C13.0673 27.707 14.5113 26.263 16.2883 26.263C18.0653 26.263 19.5093 27.707 19.5093 29.484C19.5093 31.261 18.0643 32.705 16.2883 32.705ZM33.1593 32.705C31.3833 32.705 29.9383 31.261 29.9383 29.484C29.9383 27.707 31.3823 26.263 33.1593 26.263C34.9363 26.263 36.3803 27.707 36.3803 29.484C36.3803 31.261 34.9353 32.705 33.1593 32.705ZM30.4423 29.984H19.0103C18.7343 29.984 18.5103 29.76 18.5103 29.484C18.5103 29.208 18.7343 28.984 19.0103 28.984H30.4433C30.7193 28.984 30.9433 29.208 30.9433 29.484C30.9433 29.76 30.7193 29.984 30.4423 29.984ZM38.2813 29.984H35.8773C35.6013 29.984 35.3773 29.76 35.3773 29.484C35.3773 29.208 35.6013 28.984 35.8773 28.984H38.2813C38.9003 28.984 39.4183 28.54 39.5133 27.928L39.9853 24.911C40.0383 24.57 39.9523 24.232 39.7423 23.958C39.5333 23.686 39.2283 23.515 38.8873 23.478L31.6263 22.691C31.5273 22.68 31.4343 22.64 31.3583 22.577L25.3013 17.486C24.9273 17.172 24.4513 16.999 23.9633 16.999H13.9883C13.5313 16.999 13.1053 17.224 12.8463 17.601L9.21832 22.89C9.03732 23.154 8.96532 23.472 9.01532 23.788L9.66132 27.929C9.75732 28.54 10.2753 28.985 10.8943 28.985H13.5623C13.8383 28.985 14.0623 29.209 14.0623 29.485C14.0623 29.761 13.8383 29.985 13.5623 29.985H10.8953C9.78032 29.985 8.84532 29.185 8.67332 28.084L8.02732 23.943C7.93832 23.375 8.06832 22.799 8.39432 22.324L12.0223 17.035C12.4663 16.387 13.2023 16 13.9883 16H23.9643C24.6883 16 25.3913 16.256 25.9443 16.722L31.8843 21.715L38.9933 22.486C39.6103 22.552 40.1573 22.86 40.5353 23.352C40.9123 23.844 41.0683 24.454 40.9733 25.068L40.5013 28.085C40.3303 29.184 39.3963 29.984 38.2813 29.984ZM27.2663 23.08H12.7983C12.5223 23.08 12.2983 22.856 12.2983 22.58C12.2983 22.304 12.5223 22.08 12.7983 22.08H27.2663C27.5423 22.08 27.7663 22.304 27.7663 22.58C27.7663 22.856 27.5423 23.08 27.2663 23.08Z" stroke="white"/>
</svg>
