<svg width="19" height="16" viewBox="0 0 19 16" fill="none" xmlns="http://www.w3.org/2000/svg">
<path d="M15.3211 8.64138V1.73596C15.3211 0.779645 14.5333 0 13.567 0H1.75409C0.787787 0 0 0.779645 0 1.73596V8.64138C0 9.5977 0.787787 10.3773 1.75409 10.3773H2.2547V12.459C2.2547 12.843 2.56904 13.1541 2.96099 13.1541C3.16279 13.1541 3.35682 13.0658 3.49265 12.9121L5.70854 10.3735H13.5709C14.5333 10.3773 15.3211 9.5977 15.3211 8.64138ZM5.48734 9.43639C5.34764 9.43639 5.21957 9.494 5.12643 9.5977L3.2016 11.7984V9.90494C3.2016 9.64378 2.98816 9.43255 2.72427 9.43255H1.75409C1.31168 9.43255 0.950777 9.07537 0.950777 8.63754V1.73596C0.950777 1.29813 1.31168 0.94095 1.75409 0.94095H13.567C14.0094 0.94095 14.3703 1.29813 14.3703 1.73596V8.64138C14.3703 9.07921 14.0094 9.43639 13.567 9.43639H5.48734Z" fill="white"/>
<path d="M15.5112 15.758C15.6471 15.9155 15.8411 16 16.039 16C16.1205 16 16.2059 15.9846 16.2874 15.9539C16.5668 15.8502 16.7453 15.5967 16.7453 15.301V13.2194H17.2459C18.2122 13.2194 19 12.4398 19 11.4834V4.57801C19 3.6217 18.2122 2.84205 17.2459 2.84205C16.982 2.84205 16.7686 3.05329 16.7686 3.31061C16.7686 3.57177 16.982 3.78301 17.2459 3.78301C17.6883 3.78301 18.0492 4.14018 18.0492 4.57801V11.4834C18.0492 11.9213 17.6883 12.2784 17.2459 12.2784H16.2719C16.008 12.2784 15.7945 12.4897 15.7945 12.7508V14.6443L13.8697 12.4436C13.7804 12.3399 13.6485 12.2823 13.5088 12.2823H6.36826C6.10437 12.2823 5.89093 12.4935 5.89093 12.7547C5.89093 13.0158 6.10437 13.2271 6.36826 13.2271H13.2915L15.5112 15.758Z" fill="white"/>
<path d="M7.66054 5.91455C7.97345 5.91455 8.22712 5.6635 8.22712 5.35382C8.22712 5.04414 7.97345 4.79309 7.66054 4.79309C7.34762 4.79309 7.09395 5.04414 7.09395 5.35382C7.09395 5.6635 7.34762 5.91455 7.66054 5.91455Z" fill="white"/>
<path d="M9.55823 5.91455C9.87114 5.91455 10.1248 5.6635 10.1248 5.35382C10.1248 5.04414 9.87114 4.79309 9.55823 4.79309C9.24531 4.79309 8.99164 5.04414 8.99164 5.35382C8.99164 5.6635 9.24531 5.91455 9.55823 5.91455Z" fill="white"/>
<path d="M5.76287 5.91455C6.07578 5.91455 6.32945 5.6635 6.32945 5.35382C6.32945 5.04414 6.07578 4.79309 5.76287 4.79309C5.44995 4.79309 5.19628 5.04414 5.19628 5.35382C5.19628 5.6635 5.44995 5.91455 5.76287 5.91455Z" fill="white"/>
</svg>
