<svg width="14" height="14" viewBox="0 0 14 14" fill="none" xmlns="http://www.w3.org/2000/svg">
<path fill-rule="evenodd" clip-rule="evenodd" d="M0.50483 0.505013C0.778197 0.231646 1.22141 0.231646 1.49478 0.505013L6.9998 6.01004L12.5048 0.505013C12.7782 0.231646 13.2214 0.231646 13.4948 0.505013C13.7681 0.77838 13.7681 1.2216 13.4948 1.49496L7.98975 6.99999L13.4948 12.505C13.7681 12.7784 13.7681 13.2216 13.4948 13.495C13.2214 13.7683 12.7782 13.7683 12.5048 13.495L6.9998 7.98994L1.49478 13.495C1.22141 13.7683 0.778197 13.7683 0.50483 13.495C0.231463 13.2216 0.231463 12.7784 0.50483 12.505L6.00986 6.99999L0.50483 1.49496C0.231463 1.2216 0.231463 0.77838 0.50483 0.505013Z" fill="#94A8B2"/>
</svg>
