<svg width="14" height="18" viewBox="0 0 14 18" fill="none" xmlns="http://www.w3.org/2000/svg">
<path d="M12.0223 2.15655H9.3274C9.19297 0.94457 8.20118 0 6.99998 0C5.79883 0 4.80717 0.944533 4.67274 2.15655H1.97774C0.88715 2.15655 0 3.07918 0 4.21303V4.31855C0 5.18502 0.518919 5.92666 1.24993 6.22884V15.9435C1.24993 17.0774 2.13718 18 3.2277 18H10.7723C11.8629 18 12.7501 17.0773 12.7501 15.9435V6.22888C13.481 5.92666 14 5.18502 14 4.31858V4.21307C14 3.07918 13.1128 2.15655 12.0223 2.15655ZM6.99998 0.975277C7.68315 0.975277 8.25339 1.48439 8.37957 2.15655H5.62065C5.74679 1.48435 6.31706 0.975277 6.99998 0.975277ZM11.812 15.9435C11.812 16.5397 11.3455 17.0248 10.7723 17.0248H3.22767C2.65445 17.0248 2.18793 16.5396 2.18793 15.9435V6.37503H11.812V15.9435ZM13.062 4.31855C13.062 4.9147 12.5954 5.39979 12.0222 5.39979H1.97774C1.40453 5.39979 0.938001 4.9147 0.938001 4.31855V4.21303C0.938001 3.61687 1.40453 3.13179 1.97774 3.13179H12.0223C12.5955 3.13179 13.062 3.61687 13.062 4.21303L13.062 4.31855Z" fill="#94A2B2"/>
<path d="M12.0223 2.15655H9.3274C9.19297 0.94457 8.20118 0 6.99998 0C5.79883 0 4.80717 0.944533 4.67274 2.15655H1.97774C0.88715 2.15655 0 3.07918 0 4.21303V4.31855C0 5.18502 0.518919 5.92666 1.24993 6.22884V15.9435C1.24993 17.0774 2.13718 18 3.2277 18H10.7723C11.8629 18 12.7501 17.0773 12.7501 15.9435V6.22888C13.481 5.92666 14 5.18502 14 4.31858V4.21307C14 3.07918 13.1128 2.15655 12.0223 2.15655ZM6.99998 0.975277C7.68315 0.975277 8.25339 1.48439 8.37957 2.15655H5.62065C5.74679 1.48435 6.31706 0.975277 6.99998 0.975277ZM11.812 15.9435C11.812 16.5397 11.3455 17.0248 10.7723 17.0248H3.22767C2.65445 17.0248 2.18793 16.5396 2.18793 15.9435V6.37503H11.812V15.9435ZM13.062 4.31855C13.062 4.9147 12.5954 5.39979 12.0222 5.39979H1.97774C1.40453 5.39979 0.938001 4.9147 0.938001 4.31855V4.21303C0.938001 3.61687 1.40453 3.13179 1.97774 3.13179H12.0223C12.5955 3.13179 13.062 3.61687 13.062 4.21303L13.062 4.31855Z" fill="#94A8B2"/>
<path d="M4.48538 15.7775C4.74441 15.7775 4.95438 15.5592 4.95438 15.29V9.79946C4.95438 9.53022 4.74437 9.3118 4.48538 9.3118C4.22639 9.3118 4.01638 9.53022 4.01638 9.79946V15.29C4.01634 15.5592 4.22635 15.7775 4.48538 15.7775Z" fill="#94A2B2"/>
<path d="M4.48538 15.7775C4.74441 15.7775 4.95438 15.5592 4.95438 15.29V9.79946C4.95438 9.53022 4.74437 9.3118 4.48538 9.3118C4.22639 9.3118 4.01638 9.53022 4.01638 9.79946V15.29C4.01634 15.5592 4.22635 15.7775 4.48538 15.7775Z" fill="#94A8B2"/>
<path d="M6.99999 15.7775C7.25901 15.7775 7.46902 15.5592 7.46902 15.29V9.79946C7.46902 9.53022 7.25894 9.3118 6.99999 9.3118C6.741 9.3118 6.53099 9.53022 6.53099 9.79946V15.29C6.53099 15.5592 6.74096 15.7775 6.99999 15.7775Z" fill="#94A2B2"/>
<path d="M6.99999 15.7775C7.25901 15.7775 7.46902 15.5592 7.46902 15.29V9.79946C7.46902 9.53022 7.25894 9.3118 6.99999 9.3118C6.741 9.3118 6.53099 9.53022 6.53099 9.79946V15.29C6.53099 15.5592 6.74096 15.7775 6.99999 15.7775Z" fill="#94A8B2"/>
<path d="M9.51458 15.7775C9.77357 15.7775 9.98354 15.5592 9.98354 15.29V9.79946C9.98354 9.53022 9.77353 9.3118 9.51458 9.3118C9.25551 9.3118 9.04554 9.53022 9.04554 9.79946V15.29C9.0455 15.5592 9.25558 15.7775 9.51458 15.7775Z" fill="#94A2B2"/>
<path d="M9.51458 15.7775C9.77357 15.7775 9.98354 15.5592 9.98354 15.29V9.79946C9.98354 9.53022 9.77353 9.3118 9.51458 9.3118C9.25551 9.3118 9.04554 9.53022 9.04554 9.79946V15.29C9.0455 15.5592 9.25558 15.7775 9.51458 15.7775Z" fill="#94A8B2"/>
</svg>
