<svg width="16" height="16" viewBox="0 0 16 16" fill="none" xmlns="http://www.w3.org/2000/svg">
<path fill-rule="evenodd" clip-rule="evenodd" d="M0 1C0 0.447715 0.447715 0 1 0H6C6.55228 0 7 0.447715 7 1V6C7 6.55228 6.55228 7 6 7H1C0.447715 7 0 6.55228 0 6V1ZM1 1V6H6V1H1Z" fill="white"/>
<path fill-rule="evenodd" clip-rule="evenodd" d="M0 10C0 9.44771 0.447715 9 1 9H6C6.55228 9 7 9.44771 7 10V15C7 15.5523 6.55228 16 6 16H1C0.447715 16 0 15.5523 0 15V10ZM1 10V15H6V10H1Z" fill="white"/>
<path fill-rule="evenodd" clip-rule="evenodd" d="M9 1C9 0.447715 9.44771 0 10 0H15C15.5523 0 16 0.447715 16 1V6C16 6.55228 15.5523 7 15 7H10C9.44771 7 9 6.55228 9 6V1ZM10 1V6H15V1H10Z" fill="white"/>
<path d="M10 12H15V13H10V12Z" fill="white"/>
<path d="M12 15V10H13V15H12Z" fill="white"/>
</svg>
