<svg width="16" height="18" viewBox="0 0 16 18" fill="none" xmlns="http://www.w3.org/2000/svg">
<path fill-rule="evenodd" clip-rule="evenodd" d="M8.77857 14.2077L12.6073 10.3559C13.3247 9.63268 14.4927 9.63242 15.2107 10.3563C15.9298 11.0814 15.9298 12.2624 15.2107 12.9874L11.3901 16.8321C11.3355 16.8872 11.2678 16.9269 11.1938 16.9475L8.37887 17.7337C8.33957 17.7447 8.29961 17.75 8.26007 17.75C8.14174 17.75 8.02601 17.7024 7.9405 17.614C7.82615 17.4958 7.78421 17.3236 7.83211 17.1646L8.66593 14.397C8.68755 14.3252 8.7263 14.2603 8.77857 14.2077ZM8.92538 16.641L10.8428 16.1055L13.6324 13.2982L12.2939 11.9486L9.48892 14.7704L8.92538 16.641ZM14.2672 12.6594L14.5798 12.3449C14.9479 11.9736 14.948 11.3702 14.5795 10.9986C14.2098 10.626 13.608 10.6261 13.2382 10.9986L12.9288 11.31L14.2672 12.6594Z" fill="#5D6F81"/>
<path fill-rule="evenodd" clip-rule="evenodd" d="M8.77857 14.2077L12.6073 10.3559C13.3247 9.63268 14.4927 9.63242 15.2107 10.3563C15.9298 11.0814 15.9298 12.2624 15.2107 12.9874L11.3901 16.8321C11.3355 16.8872 11.2678 16.9269 11.1938 16.9475L8.37887 17.7337C8.33957 17.7447 8.29961 17.75 8.26007 17.75C8.14174 17.75 8.02601 17.7024 7.9405 17.614C7.82615 17.4958 7.78421 17.3236 7.83211 17.1646L8.66593 14.397C8.68755 14.3252 8.7263 14.2603 8.77857 14.2077ZM8.92538 16.641L10.8428 16.1055L13.6324 13.2982L12.2939 11.9486L9.48892 14.7704L8.92538 16.641ZM14.2672 12.6594L14.5798 12.3449C14.9479 11.9736 14.948 11.3702 14.5795 10.9986C14.2098 10.626 13.608 10.6261 13.2382 10.9986L12.9288 11.31L14.2672 12.6594Z" fill="#338DF5"/>
<path d="M10.6661 7.28125C10.9112 7.28125 11.1134 7.48217 11.1134 7.73438C11.1134 7.98658 10.9112 8.1875 10.6661 8.1875H3.48302C3.23785 8.1875 3.03563 7.98658 3.03563 7.73438C3.03563 7.48217 3.23785 7.28125 3.48302 7.28125H10.6661Z" fill="#338DF5"/>
<path d="M10.6661 7.28125C10.9112 7.28125 11.1134 7.48217 11.1134 7.73438C11.1134 7.98658 10.9112 8.1875 10.6661 8.1875H3.48302C3.23785 8.1875 3.03563 7.98658 3.03563 7.73438C3.03563 7.48217 3.23785 7.28125 3.48302 7.28125H10.6661Z" fill="#338DF5"/>
<path d="M3.03563 10.5469C3.03563 10.2947 3.23785 10.0938 3.48301 10.0938H7.84551C8.09067 10.0938 8.29289 10.2947 8.29289 10.5469C8.29289 10.7991 8.09067 11 7.84551 11H3.48301C3.23785 11 3.03563 10.7991 3.03563 10.5469Z" fill="#338DF5"/>
<path d="M3.03563 10.5469C3.03563 10.2947 3.23785 10.0938 3.48301 10.0938H7.84551C8.09067 10.0938 8.29289 10.2947 8.29289 10.5469C8.29289 10.7991 8.09067 11 7.84551 11H3.48301C3.23785 11 3.03563 10.7991 3.03563 10.5469Z" fill="#338DF5"/>
<path d="M2.78953 16.8438H5.12188C5.36705 16.8438 5.56926 17.0447 5.56926 17.2969C5.56926 17.5491 5.36705 17.75 5.12188 17.75H2.78953C1.39138 17.75 0.25 16.6022 0.25 15.1875V2.8125C0.25 1.39782 1.39138 0.25 2.78953 0.25H11.3634C12.7616 0.25 13.903 1.39782 13.903 2.8125V7.13672C13.903 7.38892 13.7008 7.58984 13.4556 7.58984C13.2104 7.58984 13.0082 7.38892 13.0082 7.13672V2.8125C13.0082 1.90096 12.2725 1.15625 11.3634 1.15625H2.78953C1.88045 1.15625 1.14476 1.90096 1.14476 2.8125V15.1875C1.14476 16.099 1.88045 16.8438 2.78953 16.8438Z" fill="#338DF5"/>
<path d="M2.78953 16.8438H5.12188C5.36705 16.8438 5.56926 17.0447 5.56926 17.2969C5.56926 17.5491 5.36705 17.75 5.12188 17.75H2.78953C1.39138 17.75 0.25 16.6022 0.25 15.1875V2.8125C0.25 1.39782 1.39138 0.25 2.78953 0.25H11.3634C12.7616 0.25 13.903 1.39782 13.903 2.8125V7.13672C13.903 7.38892 13.7008 7.58984 13.4556 7.58984C13.2104 7.58984 13.0082 7.38892 13.0082 7.13672V2.8125C13.0082 1.90096 12.2725 1.15625 11.3634 1.15625H2.78953C1.88045 1.15625 1.14476 1.90096 1.14476 2.8125V15.1875C1.14476 16.099 1.88045 16.8438 2.78953 16.8438Z" fill="#338DF5"/>
<path d="M3.48302 4.46875H10.6661C10.9112 4.46875 11.1134 4.66967 11.1134 4.92188C11.1134 5.17408 10.9112 5.375 10.6661 5.375H3.48302C3.23785 5.375 3.03563 5.17408 3.03563 4.92188C3.03563 4.66967 3.23785 4.46875 3.48302 4.46875Z" fill="#338DF5"/>
<path d="M3.48302 4.46875H10.6661C10.9112 4.46875 11.1134 4.66967 11.1134 4.92188C11.1134 5.17408 10.9112 5.375 10.6661 5.375H3.48302C3.23785 5.375 3.03563 5.17408 3.03563 4.92188C3.03563 4.66967 3.23785 4.46875 3.48302 4.46875Z" fill="#338DF5"/>
</svg>
