<svg width="18" height="17" viewBox="0 0 18 17" fill="none" xmlns="http://www.w3.org/2000/svg">
<path fill-rule="evenodd" clip-rule="evenodd" d="M8.99982 1.46547C6.22654 -1.01814 2.25265 -0.182368 0.837448 2.76349C0.0872909 4.32501 0.121217 6.36714 1.29653 8.62221C2.46678 10.8676 4.77505 13.348 8.63302 15.89L8.99982 16.1317L9.36662 15.89C13.2246 13.348 15.5329 10.8676 16.7031 8.62221C17.8784 6.36714 17.9124 4.32501 17.1622 2.76349C15.747 -0.182368 11.7731 -1.01814 8.99982 1.46547ZM8.99982 14.5319C12.5166 12.1554 14.5248 9.91679 15.5207 8.00597C16.5457 6.03939 16.4911 4.44565 15.9604 3.34086C14.9004 1.13444 11.681 0.429952 9.49474 2.85245L8.99982 3.40086L8.5049 2.85245C6.31868 0.429952 3.09926 1.13444 2.03929 3.34086C1.50855 4.44565 1.45396 6.03939 2.47891 8.00597C3.4748 9.91679 5.48302 12.1554 8.99982 14.5319Z" fill="#94A8B2"/>
</svg>
