<svg width="236" height="85" viewBox="0 0 236 85" fill="none" xmlns="http://www.w3.org/2000/svg">
<path d="M148.03 84.0487C133.652 84.0487 119.772 78.8564 108.888 69.4703C98.1544 60.1342 91.0649 47.3032 88.968 33.3239L91.1148 32.9745C95.3086 60.8331 119.772 81.852 148.03 81.852C177.187 81.852 201.751 60.0343 205.196 31.1272L207.392 31.3768C203.798 61.4323 178.286 84.0487 148.03 84.0487Z" fill="white"/>
<path d="M202.35 3.96748C202.999 3.86763 203.398 3.26852 203.298 2.61948C203.249 2.31993 203.099 2.02037 202.849 1.87059C202.6 1.67089 202.3 1.62096 201.95 1.67089C201.301 1.77074 200.852 2.41978 200.952 3.01889C201.002 3.31845 201.152 3.618 201.401 3.76778C201.701 3.91756 202 4.01741 202.35 3.96748Z" fill="white"/>
<path d="M197.707 19.145C192.514 15.0511 189.769 10.9571 189.769 7.36246C189.769 3.61801 192.764 0.872088 196.459 0.822162C198.356 0.822162 200.203 1.52113 201.601 2.8192C202.4 2.12024 201.851 1.97046 201.052 1.4712C199.255 0.422754 197.457 -0.226283 195.36 0.0732727C191.766 0.622458 188.97 3.66794 188.97 7.31254C188.97 11.2068 191.716 15.4005 197.208 19.7441L197.707 19.145Z" fill="white"/>
<path d="M206.094 29.929L192.764 12.7045L190.418 14.402L206.094 34.1228V29.929Z" fill="white"/>
<path d="M209.639 3.96748C208.99 3.86763 208.591 3.26852 208.691 2.61948C208.74 2.31993 208.89 2.02037 209.14 1.87059C209.389 1.67089 209.689 1.62096 210.039 1.67089C210.688 1.77074 211.137 2.41978 211.037 3.01889C210.987 3.31845 210.837 3.618 210.588 3.76778C210.338 3.91756 209.989 4.01741 209.639 3.96748Z" fill="white"/>
<path d="M214.332 19.145C219.524 15.0011 222.22 10.9571 222.22 7.36246C222.22 3.61801 219.225 0.872088 215.53 0.822162C213.633 0.822162 211.786 1.52113 210.388 2.8192C209.589 2.12024 210.138 1.97046 210.937 1.4712C212.735 0.422754 214.532 -0.226283 216.629 0.0732727C220.223 0.622458 223.019 3.66794 223.019 7.31254C223.019 11.2068 220.273 15.4005 214.781 19.7441L214.332 19.145Z" fill="white"/>
<path d="M205.895 29.929L219.275 12.7045L221.571 14.402L205.895 34.1228V29.929Z" fill="white"/>
<path d="M10.085 33.1243H0V7.11283H10.085C16.4756 7.11283 18.872 10.358 18.872 13.8528V26.3343C18.872 29.8791 16.4756 33.1243 10.085 33.1243ZM12.9807 15.5004C12.9807 13.4534 12.2818 12.3551 9.33615 12.3551H5.84134V27.932H9.33615C12.2818 27.932 12.9807 26.7837 12.9807 24.7866V15.5004Z" fill="white"/>
<path d="M42.8864 25.5854C42.8864 29.5296 40.1405 33.5736 32.8013 33.5736C25.4622 33.5736 22.7662 29.5296 22.7662 25.5854V14.7016C22.7662 10.7574 25.5121 6.71343 32.8513 6.71343C40.1904 6.71343 42.9363 10.7574 42.9363 14.7016V25.5854H42.8864ZM37.045 15.2008C37.045 13.1539 35.747 11.9057 32.8513 11.9057C29.9056 11.9057 28.6575 13.1539 28.6575 15.2008V25.0363C28.6575 27.0832 29.9556 28.3314 32.8513 28.3314C35.7969 28.3314 37.045 27.0832 37.045 25.0363V15.2008Z" fill="white"/>
<path d="M52.6719 24.6369C52.6719 26.8835 53.4208 28.2315 56.3165 28.2315C58.2137 28.2315 60.7599 27.9819 63.0565 27.5825L63.8553 32.6749C61.2592 33.2241 58.9127 33.4737 56.3165 33.4737C49.7762 33.4737 46.8306 30.2286 46.8306 25.4856V14.7016C46.8306 9.95862 49.7762 6.71343 56.3165 6.71343C58.9127 6.71343 61.2592 6.96306 63.8553 7.51225L63.0565 12.6047C60.8098 12.2053 58.2137 11.9557 56.3165 11.9557C53.4208 11.9557 52.6719 13.3037 52.6719 15.5503V24.6369Z" fill="white"/>
<path d="M78.6334 7.86173C77.3853 7.6121 76.237 7.51225 75.1885 7.51225C73.0417 7.51225 72.3927 8.31107 72.3927 10.408V14.1025H78.234L77.9844 16.0496H72.3427V33.1243H70.0961V16.0995H66.5513V14.1524H70.0961V10.1583C70.0961 7.01299 71.9932 5.56514 75.0387 5.56514C76.1371 5.56514 77.8346 5.76484 78.933 6.11433L78.6334 7.86173Z" fill="white"/>
<path d="M114.031 15.9497C112.034 16.7985 109.837 18.2463 108.04 19.4446V33.1243H105.793V14.1025H107.84L107.94 16.9982C109.987 15.6502 111.984 14.402 113.781 13.7031L114.031 15.9497Z" fill="white"/>
<path d="M142.289 33.1243V17.7471C142.289 16.3491 141.54 15.8499 140.242 15.8499C138.445 15.8499 135.299 16.7985 132.953 18.0466V33.1742H130.706V17.7471C130.706 16.3491 129.957 15.8499 128.659 15.8499C127.111 15.8499 123.717 16.7985 121.37 18.0466V33.1742H119.123V14.1025H121.12L121.27 15.8C123.317 14.8014 126.712 13.7031 129.009 13.7031C131.056 13.7031 132.154 14.5019 132.703 15.8C134.9 14.8014 138.345 13.7031 140.691 13.7031C143.637 13.7031 144.735 15.4005 144.735 17.9967V33.1243H142.289Z" fill="white"/>
<path d="M163.707 33.1243H161.76L161.61 31.6265C159.763 32.7748 157.666 33.5237 155.17 33.5237C151.825 33.5237 150.227 31.6265 150.227 28.2315C150.227 24.1875 152.074 22.9394 155.819 22.9394H161.461V19.2448C161.461 16.6487 160.113 15.75 156.967 15.75C155.07 15.75 153.123 15.9997 151.326 16.3991L150.976 14.5019C152.474 14.0525 154.87 13.753 156.817 13.753C161.76 13.753 163.707 15.7001 163.707 19.2448V33.1243ZM155.869 24.9863C153.273 24.9863 152.474 25.7851 152.474 28.2814C152.474 30.5281 152.923 31.5266 155.619 31.5266C157.516 31.5266 159.713 30.7777 161.461 29.5795V24.9863H155.869Z" fill="white"/>
<path d="M179.733 32.7748C178.635 33.2241 177.137 33.5237 175.739 33.5237C172.744 33.5237 171.446 32.4253 171.446 29.4297V16.0995H167.751V14.1524H171.446V9.65906L173.692 9.3595V14.1524H179.534L179.284 16.0995H173.692V29.23C173.692 30.9275 173.942 31.6265 175.889 31.6265C176.938 31.6265 178.136 31.4268 179.284 31.0773L179.733 32.7748Z" fill="white"/>
<path d="M184.426 10.5078V6.31403H186.673V10.5078H184.426ZM184.426 33.1243V14.1025H186.673V33.1243H184.426Z" fill="white"/>
<path d="M229.26 31.5266C231.207 31.5266 233.404 31.1272 235.251 30.628L235.65 32.4752C233.903 33.1242 231.407 33.5237 229.11 33.5237C223.768 33.5237 222.021 30.7278 222.021 26.6339V20.6428C222.021 16.7485 223.768 13.753 229.11 13.753C234.452 13.753 236 16.7485 236 20.6428V24.3373H224.267V26.7337C224.317 30.0788 225.466 31.5266 229.26 31.5266ZM224.317 22.2903H233.853V20.5928C233.853 17.3976 232.705 15.7001 229.16 15.7001C225.615 15.7001 224.317 17.3976 224.317 20.5928V22.2903Z" fill="white"/>
<path d="M90.6655 34.2226C84.7243 34.2226 79.9314 29.4297 79.9314 23.4885C79.9314 17.5474 84.7243 12.7545 90.6655 12.7545C96.6067 12.7545 101.4 17.5474 101.4 23.4885C101.4 29.4297 96.6067 34.2226 90.6655 34.2226ZM90.6655 14.9512C85.9725 14.9512 82.1282 18.7955 82.1282 23.4885C82.1282 28.1816 85.9725 32.0259 90.6655 32.0259C95.3586 32.0259 99.2029 28.1816 99.2029 23.4885C99.2029 18.7955 95.3586 14.9512 90.6655 14.9512Z" fill="white"/>
<path d="M90.6655 28.581C93.478 28.581 95.758 26.301 95.758 23.4885C95.758 20.6761 93.478 18.3961 90.6655 18.3961C87.8531 18.3961 85.5731 20.6761 85.5731 23.4885C85.5731 26.301 87.8531 28.581 90.6655 28.581Z" fill="white"/>
</svg>
