<svg width="141" height="50" viewBox="0 0 141 50" fill="none" xmlns="http://www.w3.org/2000/svg">
<path d="M88.0463 49.9804C79.5472 49.9804 71.3432 46.9151 64.9098 41.3739C58.565 35.8622 54.3744 28.2873 53.135 20.0345L54.4039 19.8282C56.8828 36.2749 71.3432 48.6836 88.0463 48.6836C105.281 48.6836 119.8 35.8033 121.836 18.7376L123.135 18.885C121.01 36.6286 105.93 49.9804 88.0463 49.9804Z" fill="#BCD5F2"/>
<path d="M88.0463 49.9804C79.5472 49.9804 71.3432 46.9151 64.9098 41.3739C58.565 35.8622 54.3744 28.2873 53.135 20.0345L54.4039 19.8282C56.8828 36.2749 71.3432 48.6836 88.0463 48.6836C105.281 48.6836 119.8 35.8033 121.836 18.7376L123.135 18.885C121.01 36.6286 105.93 49.9804 88.0463 49.9804Z" fill="#A7D7F1"/>
<path d="M120.154 2.70358C120.538 2.64463 120.774 2.29094 120.715 1.90777C120.685 1.73092 120.597 1.55408 120.449 1.46565C120.302 1.34776 120.125 1.31828 119.918 1.34776C119.534 1.40671 119.269 1.78987 119.328 2.14357C119.357 2.32041 119.446 2.49726 119.593 2.58568C119.771 2.6741 119.948 2.73305 120.154 2.70358Z" fill="#BCD5F2"/>
<path d="M120.154 2.70358C120.538 2.64463 120.774 2.29094 120.715 1.90777C120.685 1.73092 120.597 1.55408 120.449 1.46565C120.302 1.34776 120.125 1.31828 119.918 1.34776C119.534 1.40671 119.269 1.78987 119.328 2.14357C119.357 2.32041 119.446 2.49726 119.593 2.58568C119.771 2.6741 119.948 2.73305 120.154 2.70358Z" fill="#A7D7F1"/>
<path d="M117.41 11.6638C114.341 9.24689 112.717 6.83 112.717 4.70784C112.717 2.49726 114.488 0.876175 116.672 0.846701C117.793 0.846701 118.885 1.25934 119.712 2.02568C120.184 1.61303 119.859 1.52461 119.387 1.22987C118.325 0.610906 117.262 0.227739 116.023 0.404585C113.898 0.728803 112.245 2.52674 112.245 4.67837C112.245 6.97737 113.868 9.45321 117.115 12.0175L117.41 11.6638Z" fill="#BCD5F2"/>
<path d="M117.41 11.6638C114.341 9.24689 112.717 6.83 112.717 4.70784C112.717 2.49726 114.488 0.876175 116.672 0.846701C117.793 0.846701 118.885 1.25934 119.712 2.02568C120.184 1.61303 119.859 1.52461 119.387 1.22987C118.325 0.610906 117.262 0.227739 116.023 0.404585C113.898 0.728803 112.245 2.52674 112.245 4.67837C112.245 6.97737 113.868 9.45321 117.115 12.0175L117.41 11.6638Z" fill="#A7D7F1"/>
<path d="M122.368 18.0303L114.488 7.8616L113.101 8.86373L122.368 20.5061V18.0303Z" fill="#BCD5F2"/>
<path d="M122.368 18.0303L114.488 7.8616L113.101 8.86373L122.368 20.5061V18.0303Z" fill="#A7D7F1"/>
<path d="M124.463 2.70358C124.079 2.64463 123.843 2.29094 123.902 1.90777C123.932 1.73092 124.02 1.55408 124.168 1.46565C124.315 1.34776 124.492 1.31828 124.699 1.34776C125.083 1.40671 125.348 1.78987 125.289 2.14357C125.26 2.32041 125.171 2.49726 125.024 2.58568C124.876 2.6741 124.669 2.73305 124.463 2.70358Z" fill="#BCD5F2"/>
<path d="M124.463 2.70358C124.079 2.64463 123.843 2.29094 123.902 1.90777C123.932 1.73092 124.02 1.55408 124.168 1.46565C124.315 1.34776 124.492 1.31828 124.699 1.34776C125.083 1.40671 125.348 1.78987 125.289 2.14357C125.26 2.32041 125.171 2.49726 125.024 2.58568C124.876 2.6741 124.669 2.73305 124.463 2.70358Z" fill="#A7D7F1"/>
<path d="M127.237 11.6638C130.306 9.21742 131.9 6.83 131.9 4.70784C131.9 2.49726 130.129 0.876175 127.945 0.846701C126.824 0.846701 125.732 1.25934 124.905 2.02568C124.433 1.61303 124.758 1.52461 125.23 1.22987C126.292 0.610906 127.355 0.227739 128.594 0.404585C130.719 0.728803 132.372 2.52674 132.372 4.67837C132.372 6.97737 130.749 9.45321 127.502 12.0175L127.237 11.6638Z" fill="#BCD5F2"/>
<path d="M127.237 11.6638C130.306 9.21742 131.9 6.83 131.9 4.70784C131.9 2.49726 130.129 0.876175 127.945 0.846701C126.824 0.846701 125.732 1.25934 124.905 2.02568C124.433 1.61303 124.758 1.52461 125.23 1.22987C126.292 0.610906 127.355 0.227739 128.594 0.404585C130.719 0.728803 132.372 2.52674 132.372 4.67837C132.372 6.97737 130.749 9.45321 127.502 12.0175L127.237 11.6638Z" fill="#A7D7F1"/>
<path d="M122.249 18.0303L130.158 7.8616L131.516 8.86373L122.249 20.5061V18.0303Z" fill="#BCD5F2"/>
<path d="M122.249 18.0303L130.158 7.8616L131.516 8.86373L122.249 20.5061V18.0303Z" fill="#A7D7F1"/>
<path d="M6.50777 19.9166H0.54657V4.56047H6.50777C10.2852 4.56047 11.7017 6.4763 11.7017 8.53951V15.9081C11.7017 18.0008 10.2852 19.9166 6.50777 19.9166ZM8.2194 9.51216C8.2194 8.30371 7.80625 7.65528 6.06511 7.65528H3.99934V16.8513H6.06511C7.80625 16.8513 8.2194 16.1734 8.2194 14.9944V9.51216Z" fill="#BCD5F2"/>
<path d="M6.50777 19.9166H0.54657V4.56047H6.50777C10.2852 4.56047 11.7017 6.4763 11.7017 8.53951V15.9081C11.7017 18.0008 10.2852 19.9166 6.50777 19.9166ZM8.2194 9.51216C8.2194 8.30371 7.80625 7.65528 6.06511 7.65528H3.99934V16.8513H6.06511C7.80625 16.8513 8.2194 16.1734 8.2194 14.9944V9.51216Z" fill="#A7D7F1"/>
<path d="M25.8964 15.466C25.8964 17.7945 24.2733 20.1819 19.9352 20.1819C15.5971 20.1819 14.0035 17.7945 14.0035 15.466V9.04058C14.0035 6.7121 15.6266 4.32468 19.9647 4.32468C24.3028 4.32468 25.9259 6.7121 25.9259 9.04058V15.466H25.8964ZM22.4436 9.33532C22.4436 8.12687 21.6764 7.39001 19.9647 7.39001C18.2236 7.39001 17.4858 8.12687 17.4858 9.33532V15.1418C17.4858 16.3502 18.2531 17.0871 19.9647 17.0871C21.7059 17.0871 22.4436 16.3502 22.4436 15.1418V9.33532Z" fill="#BCD5F2"/>
<path d="M25.8964 15.466C25.8964 17.7945 24.2733 20.1819 19.9352 20.1819C15.5971 20.1819 14.0035 17.7945 14.0035 15.466V9.04058C14.0035 6.7121 15.6266 4.32468 19.9647 4.32468C24.3028 4.32468 25.9259 6.7121 25.9259 9.04058V15.466H25.8964ZM22.4436 9.33532C22.4436 8.12687 21.6764 7.39001 19.9647 7.39001C18.2236 7.39001 17.4858 8.12687 17.4858 9.33532V15.1418C17.4858 16.3502 18.2531 17.0871 19.9647 17.0871C21.7059 17.0871 22.4436 16.3502 22.4436 15.1418V9.33532Z" fill="#A7D7F1"/>
<path d="M31.6806 14.906C31.6806 16.2323 32.1232 17.0281 33.8349 17.0281C34.9563 17.0281 36.4613 16.8808 37.8188 16.645L38.291 19.6513C36.7564 19.9756 35.3694 20.1229 33.8349 20.1229C29.9689 20.1229 28.2278 18.2071 28.2278 15.407V9.04058C28.2278 6.24051 29.9689 4.32468 33.8349 4.32468C35.3694 4.32468 36.7564 4.47205 38.291 4.79627L37.8188 7.80265C36.4908 7.56686 34.9563 7.41949 33.8349 7.41949C32.1232 7.41949 31.6806 8.2153 31.6806 9.54164V14.906Z" fill="#BCD5F2"/>
<path d="M31.6806 14.906C31.6806 16.2323 32.1232 17.0281 33.8349 17.0281C34.9563 17.0281 36.4613 16.8808 37.8188 16.645L38.291 19.6513C36.7564 19.9756 35.3694 20.1229 33.8349 20.1229C29.9689 20.1229 28.2278 18.2071 28.2278 15.407V9.04058C28.2278 6.24051 29.9689 4.32468 33.8349 4.32468C35.3694 4.32468 36.7564 4.47205 38.291 4.79627L37.8188 7.80265C36.4908 7.56686 34.9563 7.41949 33.8349 7.41949C32.1232 7.41949 31.6806 8.2153 31.6806 9.54164V14.906Z" fill="#A7D7F1"/>
<path d="M47.0262 5.00259C46.2885 4.85522 45.6097 4.79627 44.99 4.79627C43.721 4.79627 43.3374 5.26786 43.3374 6.50579V8.68689H46.7901L46.6426 9.83639H43.3079V19.9166H41.9799V9.86586H39.8846V8.71636H41.9799V6.35841C41.9799 4.50153 43.1013 3.64677 44.9014 3.64677C45.5507 3.64677 46.5541 3.76467 47.2033 3.97099L47.0262 5.00259Z" fill="#BCD5F2"/>
<path d="M47.0262 5.00259C46.2885 4.85522 45.6097 4.79627 44.99 4.79627C43.721 4.79627 43.3374 5.26786 43.3374 6.50579V8.68689H46.7901L46.6426 9.83639H43.3079V19.9166H41.9799V9.86586H39.8846V8.71636H41.9799V6.35841C41.9799 4.50153 43.1013 3.64677 44.9014 3.64677C45.5507 3.64677 46.5541 3.76467 47.2033 3.97099L47.0262 5.00259Z" fill="#A7D7F1"/>
<path d="M67.9495 9.77744C66.769 10.2785 65.4705 11.1333 64.4081 11.8406V19.9166H63.0802V8.68688H64.2901L64.3491 10.3964C65.5591 9.60059 66.7395 8.86373 67.8019 8.45109L67.9495 9.77744Z" fill="#BCD5F2"/>
<path d="M67.9495 9.77744C66.769 10.2785 65.4705 11.1333 64.4081 11.8406V19.9166H63.0802V8.68688H64.2901L64.3491 10.3964C65.5591 9.60059 66.7395 8.86373 67.8019 8.45109L67.9495 9.77744Z" fill="#A7D7F1"/>
<path d="M84.6526 19.9166V10.8385C84.6526 10.0132 84.2099 9.71849 83.4426 9.71849C82.3803 9.71849 80.5211 10.2785 79.1341 11.0154V19.9461H77.8061V10.8385C77.8061 10.0132 77.3634 9.71849 76.5961 9.71849C75.6813 9.71849 73.6745 10.2785 72.2875 11.0154V19.9461H70.9595V8.68688H72.14L72.2285 9.68901C73.4385 9.09953 75.4452 8.45109 76.8027 8.45109C78.0126 8.45109 78.6619 8.92268 78.9865 9.68901C80.285 9.09953 82.3212 8.45109 83.7083 8.45109C85.4494 8.45109 86.0986 9.45322 86.0986 10.9859V19.9166H84.6526Z" fill="#BCD5F2"/>
<path d="M84.6526 19.9166V10.8385C84.6526 10.0132 84.2099 9.71849 83.4426 9.71849C82.3803 9.71849 80.5211 10.2785 79.1341 11.0154V19.9461H77.8061V10.8385C77.8061 10.0132 77.3634 9.71849 76.5961 9.71849C75.6813 9.71849 73.6745 10.2785 72.2875 11.0154V19.9461H70.9595V8.68688H72.14L72.2285 9.68901C73.4385 9.09953 75.4452 8.45109 76.8027 8.45109C78.0126 8.45109 78.6619 8.92268 78.9865 9.68901C80.285 9.09953 82.3212 8.45109 83.7083 8.45109C85.4494 8.45109 86.0986 9.45322 86.0986 10.9859V19.9166H84.6526Z" fill="#A7D7F1"/>
<path d="M97.3128 19.9166H96.1619L96.0733 19.0324C94.9814 19.7103 93.742 20.1524 92.2664 20.1524C90.2892 20.1524 89.3448 19.0324 89.3448 17.0281C89.3448 14.6407 90.4368 13.9038 92.6501 13.9038H95.9848V11.7227C95.9848 10.1901 95.188 9.65953 93.3288 9.65953C92.2074 9.65953 91.0565 9.8069 89.9941 10.0427L89.7875 8.92267C90.6728 8.6574 92.0894 8.48056 93.2403 8.48056C96.1619 8.48056 97.3128 9.63006 97.3128 11.7227V19.9166ZM92.6796 15.1123C91.145 15.1123 90.6728 15.5839 90.6728 17.0576C90.6728 18.3839 90.9384 18.9734 92.532 18.9734C93.6534 18.9734 94.9519 18.5313 95.9848 17.8239V15.1123H92.6796Z" fill="#BCD5F2"/>
<path d="M97.3128 19.9166H96.1619L96.0733 19.0324C94.9814 19.7103 93.742 20.1524 92.2664 20.1524C90.2892 20.1524 89.3448 19.0324 89.3448 17.0281C89.3448 14.6407 90.4368 13.9038 92.6501 13.9038H95.9848V11.7227C95.9848 10.1901 95.188 9.65953 93.3288 9.65953C92.2074 9.65953 91.0565 9.8069 89.9941 10.0427L89.7875 8.92267C90.6728 8.6574 92.0894 8.48056 93.2403 8.48056C96.1619 8.48056 97.3128 9.63006 97.3128 11.7227V19.9166ZM92.6796 15.1123C91.145 15.1123 90.6728 15.5839 90.6728 17.0576C90.6728 18.3839 90.9384 18.9734 92.532 18.9734C93.6534 18.9734 94.9519 18.5313 95.9848 17.8239V15.1123H92.6796Z" fill="#A7D7F1"/>
<path d="M106.786 19.7103C106.137 19.9756 105.251 20.1524 104.425 20.1524C102.654 20.1524 101.887 19.504 101.887 17.7355V9.86586H99.7032V8.71636H101.887V6.06366L103.215 5.88682V8.71636H106.668L106.52 9.86586H103.215V17.6176C103.215 18.6197 103.363 19.0324 104.513 19.0324C105.133 19.0324 105.841 18.9145 106.52 18.7082L106.786 19.7103Z" fill="#BCD5F2"/>
<path d="M106.786 19.7103C106.137 19.9756 105.251 20.1524 104.425 20.1524C102.654 20.1524 101.887 19.504 101.887 17.7355V9.86586H99.7032V8.71636H101.887V6.06366L103.215 5.88682V8.71636H106.668L106.52 9.86586H103.215V17.6176C103.215 18.6197 103.363 19.0324 104.513 19.0324C105.133 19.0324 105.841 18.9145 106.52 18.7082L106.786 19.7103Z" fill="#A7D7F1"/>
<path d="M109.56 6.56473V4.08889H110.888V6.56473H109.56ZM109.56 19.9166V8.68689H110.888V19.9166H109.56Z" fill="#BCD5F2"/>
<path d="M109.56 6.56473V4.08889H110.888V6.56473H109.56ZM109.56 19.9166V8.68689H110.888V19.9166H109.56Z" fill="#A7D7F1"/>
<path d="M136.061 18.9734C137.211 18.9734 138.51 18.7376 139.602 18.4429L139.838 19.5334C138.805 19.9166 137.33 20.1524 135.972 20.1524C132.814 20.1524 131.781 18.5018 131.781 16.0849V12.548C131.781 10.249 132.814 8.48056 135.972 8.48056C139.13 8.48056 140.045 10.249 140.045 12.548V14.7291H133.109V16.1439C133.139 18.1187 133.818 18.9734 136.061 18.9734ZM133.139 13.5207H138.776V12.5185C138.776 10.6322 138.097 9.63006 136.002 9.63006C133.906 9.63006 133.139 10.6322 133.139 12.5185V13.5207Z" fill="#BCD5F2"/>
<path d="M136.061 18.9734C137.211 18.9734 138.51 18.7376 139.602 18.4429L139.838 19.5334C138.805 19.9166 137.33 20.1524 135.972 20.1524C132.814 20.1524 131.781 18.5018 131.781 16.0849V12.548C131.781 10.249 132.814 8.48056 135.972 8.48056C139.13 8.48056 140.045 10.249 140.045 12.548V14.7291H133.109V16.1439C133.139 18.1187 133.818 18.9734 136.061 18.9734ZM133.139 13.5207H138.776V12.5185C138.776 10.6322 138.097 9.63006 136.002 9.63006C133.906 9.63006 133.139 10.6322 133.139 12.5185V13.5207Z" fill="#A7D7F1"/>
<path d="M54.1383 20.565C50.6265 20.565 47.7935 17.7355 47.7935 14.2281C47.7935 10.7206 50.6265 7.89107 54.1383 7.89107C57.6501 7.89107 60.4832 10.7206 60.4832 14.2281C60.4832 17.7355 57.6501 20.565 54.1383 20.565ZM54.1383 9.18794C51.3643 9.18794 49.092 11.4575 49.092 14.2281C49.092 16.9986 51.3643 19.2682 54.1383 19.2682C56.9124 19.2682 59.1847 16.9986 59.1847 14.2281C59.1847 11.4575 56.9124 9.18794 54.1383 9.18794Z" fill="#BCD5F2"/>
<path d="M54.1383 20.565C50.6265 20.565 47.7935 17.7355 47.7935 14.2281C47.7935 10.7206 50.6265 7.89107 54.1383 7.89107C57.6501 7.89107 60.4832 10.7206 60.4832 14.2281C60.4832 17.7355 57.6501 20.565 54.1383 20.565ZM54.1383 9.18794C51.3643 9.18794 49.092 11.4575 49.092 14.2281C49.092 16.9986 51.3643 19.2682 54.1383 19.2682C56.9124 19.2682 59.1847 16.9986 59.1847 14.2281C59.1847 11.4575 56.9124 9.18794 54.1383 9.18794Z" fill="#A7D7F1"/>
<path d="M54.1383 17.2344C55.8008 17.2344 57.1485 15.8884 57.1485 14.2281C57.1485 12.5677 55.8008 11.2217 54.1383 11.2217C52.4759 11.2217 51.1282 12.5677 51.1282 14.2281C51.1282 15.8884 52.4759 17.2344 54.1383 17.2344Z" fill="#BCD5F2"/>
<path d="M54.1383 17.2344C55.8008 17.2344 57.1485 15.8884 57.1485 14.2281C57.1485 12.5677 55.8008 11.2217 54.1383 11.2217C52.4759 11.2217 51.1282 12.5677 51.1282 14.2281C51.1282 15.8884 52.4759 17.2344 54.1383 17.2344Z" fill="#A7D7F1"/>
</svg>
