<svg width="247" height="89" viewBox="0 0 247 89" fill="none" xmlns="http://www.w3.org/2000/svg">
<path d="M154.03 88.0487C139.652 88.0487 125.772 82.8564 114.888 73.4703C104.154 64.1342 97.0649 51.3032 94.968 37.3239L97.1149 36.9745C101.309 64.8331 125.772 85.852 154.03 85.852C183.187 85.852 207.751 64.0343 211.196 35.1272L213.392 35.3768C209.798 65.4323 184.286 88.0487 154.03 88.0487Z" fill="#2194D2"/>
<path d="M208.35 7.96748C208.999 7.86763 209.398 7.26852 209.299 6.61948C209.249 6.31993 209.099 6.02037 208.849 5.87059C208.6 5.67089 208.3 5.62096 207.951 5.67089C207.301 5.77074 206.852 6.41978 206.952 7.01889C207.002 7.31845 207.152 7.618 207.401 7.76778C207.701 7.91756 208 8.01741 208.35 7.96748Z" fill="#2194D2"/>
<path d="M203.707 23.145C198.514 19.0511 195.769 14.9571 195.769 11.3625C195.769 7.61801 198.764 4.87209 202.459 4.82216C204.356 4.82216 206.203 5.52113 207.601 6.8192C208.4 6.12024 207.851 5.97046 207.052 5.4712C205.255 4.42275 203.457 3.77372 201.36 4.07327C197.766 4.62246 194.97 7.66794 194.97 11.3125C194.97 15.2068 197.716 19.4005 203.208 23.7441L203.707 23.145Z" fill="#2194D2"/>
<path d="M215.639 7.96748C214.99 7.86763 214.591 7.26852 214.691 6.61948C214.74 6.31993 214.89 6.02037 215.14 5.87059C215.389 5.67089 215.689 5.62096 216.039 5.67089C216.688 5.77074 217.137 6.41978 217.037 7.01889C216.987 7.31845 216.837 7.618 216.588 7.76778C216.338 7.91756 215.989 8.01741 215.639 7.96748Z" fill="#2194D2"/>
<path d="M220.332 23.145C225.524 19.0011 228.22 14.9571 228.22 11.3625C228.22 7.61801 225.225 4.87209 221.53 4.82216C219.633 4.82216 217.786 5.52113 216.388 6.8192C215.589 6.12024 216.138 5.97046 216.937 5.4712C218.735 4.42275 220.532 3.77372 222.629 4.07327C226.223 4.62246 229.019 7.66794 229.019 11.3125C229.019 15.2068 226.273 19.4005 220.781 23.7441L220.332 23.145Z" fill="#2194D2"/>
<path d="M84.6334 11.8617C83.3853 11.6121 82.237 11.5123 81.1885 11.5123C79.0417 11.5123 78.3927 12.3111 78.3927 14.408V18.1025H84.234L83.9844 20.0496H78.3427V37.1243H76.0961V20.0995H72.5513V18.1524H76.0961V14.1583C76.0961 11.013 77.9933 9.56514 81.0387 9.56514C82.1371 9.56514 83.8346 9.76484 84.933 10.1143L84.6334 11.8617Z" fill="#2194D2"/>
<path d="M120.031 19.9497C118.034 20.7985 115.837 22.2463 114.04 23.4446V37.1243H111.793V18.1025H113.84L113.94 20.9982C115.987 19.6502 117.984 18.402 119.781 17.7031L120.031 19.9497Z" fill="#2194D2"/>
<path d="M148.289 37.1243V21.7471C148.289 20.3491 147.54 19.8499 146.242 19.8499C144.445 19.8499 141.299 20.7985 138.953 22.0466V37.1742H136.706V21.7471C136.706 20.3491 135.957 19.8499 134.659 19.8499C133.111 19.8499 129.717 20.7985 127.37 22.0466V37.1742H125.123V18.1025H127.12L127.27 19.8C129.317 18.8014 132.712 17.7031 135.009 17.7031C137.056 17.7031 138.154 18.5019 138.703 19.8C140.9 18.8014 144.345 17.7031 146.691 17.7031C149.637 17.7031 150.735 19.4005 150.735 21.9967V37.1243H148.289Z" fill="#2194D2"/>
<path d="M169.707 37.1243H167.76L167.61 35.6265C165.763 36.7748 163.666 37.5237 161.17 37.5237C157.825 37.5237 156.227 35.6265 156.227 32.2315C156.227 28.1875 158.074 26.9394 161.819 26.9394H167.461V23.2448C167.461 20.6487 166.113 19.75 162.967 19.75C161.07 19.75 159.123 19.9997 157.326 20.3991L156.976 18.5019C158.474 18.0525 160.87 17.753 162.817 17.753C167.76 17.753 169.707 19.7001 169.707 23.2448V37.1243ZM161.869 28.9863C159.273 28.9863 158.474 29.7851 158.474 32.2814C158.474 34.5281 158.923 35.5266 161.619 35.5266C163.516 35.5266 165.713 34.7777 167.461 33.5795V28.9863H161.869Z" fill="#2194D2"/>
<path d="M185.733 36.7748C184.635 37.2241 183.137 37.5237 181.739 37.5237C178.744 37.5237 177.446 36.4253 177.446 33.4297V20.0995H173.751V18.1524H177.446V13.6591L179.692 13.3595V18.1524H185.534L185.284 20.0995H179.692V33.23C179.692 34.9275 179.942 35.6265 181.889 35.6265C182.938 35.6265 184.136 35.4268 185.284 35.0773L185.733 36.7748Z" fill="#2194D2"/>
<path d="M190.427 14.5078V10.314H192.673V14.5078H190.427ZM190.427 37.1243V18.1025H192.673V37.1243H190.427Z" fill="#2194D2"/>
<path d="M235.26 35.5266C237.207 35.5266 239.404 35.1272 241.251 34.628L241.65 36.4752C239.903 37.1242 237.407 37.5237 235.11 37.5237C229.768 37.5237 228.021 34.7278 228.021 30.6339V24.6428C228.021 20.7485 229.768 17.753 235.11 17.753C240.452 17.753 242 20.7485 242 24.6428V28.3373H230.267V30.7337C230.317 34.0788 231.466 35.5266 235.26 35.5266ZM230.317 26.2903H239.853V24.5928C239.853 21.3976 238.705 19.7001 235.16 19.7001C231.615 19.7001 230.317 21.3976 230.317 24.5928V26.2903Z" fill="#2194D2"/>
<path d="M96.6655 38.2226C90.7243 38.2226 85.9314 33.4297 85.9314 27.4885C85.9314 21.5474 90.7243 16.7545 96.6655 16.7545C102.607 16.7545 107.4 21.5474 107.4 27.4885C107.4 33.4297 102.607 38.2226 96.6655 38.2226ZM96.6655 18.9512C91.9725 18.9512 88.1282 22.7955 88.1282 27.4885C88.1282 32.1816 91.9725 36.0259 96.6655 36.0259C101.359 36.0259 105.203 32.1816 105.203 27.4885C105.203 22.7955 101.359 18.9512 96.6655 18.9512Z" fill="#2194D2"/>
<path d="M212.094 33.9289L198.764 16.7045L196.418 18.402L212.094 38.1227V33.9289Z" fill="#60AF46"/>
<path d="M211.895 33.9289L225.275 16.7045L227.571 18.402L211.895 38.1227V33.9289Z" fill="#60AF46"/>
<path d="M16.085 37.1242H6V11.1128H16.085C22.4756 11.1128 24.872 14.358 24.872 17.8528V30.3343C24.872 33.879 22.4756 37.1242 16.085 37.1242ZM18.9807 19.5003C18.9807 17.4534 18.2818 16.355 15.3362 16.355H11.8413V31.9319H15.3362C18.2818 31.9319 18.9807 30.7836 18.9807 28.7866V19.5003Z" fill="#60AF46"/>
<path d="M48.8864 29.5854C48.8864 33.5295 46.1405 37.5735 38.8013 37.5735C31.4622 37.5735 28.7662 33.5295 28.7662 29.5854V18.7015C28.7662 14.7574 31.5121 10.7134 38.8513 10.7134C46.1904 10.7134 48.9363 14.7574 48.9363 18.7015V29.5854H48.8864ZM43.045 19.2008C43.045 17.1538 41.747 15.9057 38.8513 15.9057C35.9056 15.9057 34.6575 17.1538 34.6575 19.2008V29.0362C34.6575 31.0832 35.9556 32.3313 38.8513 32.3313C41.7969 32.3313 43.045 31.0832 43.045 29.0362V19.2008Z" fill="#60AF46"/>
<path d="M58.6719 28.6368C58.6719 30.8835 59.4208 32.2315 62.3165 32.2315C64.2137 32.2315 66.7599 31.9818 69.0565 31.5824L69.8553 36.6749C67.2592 37.2241 64.9127 37.4737 62.3165 37.4737C55.7762 37.4737 52.8306 34.2285 52.8306 29.4855V18.7015C52.8306 13.9586 55.7762 10.7134 62.3165 10.7134C64.9127 10.7134 67.2592 10.963 69.8553 11.5122L69.0565 16.6046C66.8098 16.2052 64.2137 15.9556 62.3165 15.9556C59.4208 15.9556 58.6719 17.3036 58.6719 19.5503V28.6368Z" fill="#60AF46"/>
<path d="M96.6655 32.5809C99.478 32.5809 101.758 30.301 101.758 27.4885C101.758 24.676 99.478 22.396 96.6655 22.396C93.8531 22.396 91.5731 24.676 91.5731 27.4885C91.5731 30.301 93.8531 32.5809 96.6655 32.5809Z" fill="#60AF46"/>
</svg>
