<svg width="18" height="18" viewBox="0 0 18 18" fill="none" xmlns="http://www.w3.org/2000/svg">
<path d="M8.9701 16.5H2.24251C1.82988 16.5 1.49502 16.164 1.49502 15.7501V2.25002C1.49502 1.83602 1.82992 1.50004 2.24251 1.50004H8.9701C9.38347 1.50004 9.7176 1.1648 9.7176 0.750054C9.7176 0.335309 9.38347 0 8.9701 0H2.24251C1.00614 0 0 1.00953 0 2.25002V15.75C0 16.9905 1.00614 18 2.24251 18H8.9701C9.38347 18 9.7176 17.6648 9.7176 17.25C9.7176 16.8353 9.38347 16.5 8.9701 16.5Z" fill="white"/>
<path d="M17.7773 8.46599L13.2324 3.96598C12.9394 3.67498 12.4655 3.67875 12.1754 3.9735C11.8854 4.26824 11.8884 4.74299 12.1829 5.03399L15.4308 8.24998H6.72759C6.31422 8.24998 5.9801 8.58522 5.9801 8.99996C5.9801 9.41471 6.31422 9.74998 6.72759 9.74998H15.4308L12.1829 12.966C11.8884 13.257 11.8862 13.7317 12.1754 14.0265C12.3219 14.175 12.5148 14.25 12.7077 14.25C12.8975 14.25 13.0874 14.178 13.2324 14.0339L17.7773 9.53393C17.9193 9.39294 18 9.20092 18 8.99993C18 8.79901 17.92 8.60776 17.7773 8.46599Z" fill="white"/>
</svg>
