<svg width="18" height="18" viewBox="0 0 18 18" fill="none" xmlns="http://www.w3.org/2000/svg">
<path fill-rule="evenodd" clip-rule="evenodd" d="M17.7345 12.8637C15.6174 10.746 15.2988 9.6834 15.2988 6.3C15.2988 2.82059 12.4789 0 9.00006 0C5.52124 0 2.70126 2.82062 2.70126 6.3C2.70126 8.12429 2.65267 8.8053 2.40155 9.64139C2.08926 10.683 1.44815 11.6802 0.265252 12.8637C-0.301431 13.4307 0.0999828 14.4 0.901579 14.4H5.89566L5.85034 14.85C5.85034 16.5897 7.26035 18 8.99974 18C10.7391 18 12.1491 16.5897 12.1491 14.85L12.1038 14.4H17.0982C17.9001 14.4 18.3015 13.4307 17.7345 12.8637ZM6.75066 14.85C6.75066 16.0923 7.75802 17.1 9.00034 17.1C10.2427 17.1 11.2501 16.0923 11.2501 14.85L11.2042 14.4H6.79597L6.75066 14.85ZM3.60126 6.3C3.60126 9 3.60126 10.8 0.90186 13.5H17.0985C14.3991 10.8 14.3991 9 14.3991 6.3C14.3989 3.31801 11.9818 0.9 9.00006 0.9C6.01835 0.9 3.60126 3.31801 3.60126 6.3Z" fill="white"/>
</svg>
