<svg width="32" height="32" viewBox="0 0 32 32" fill="none" xmlns="http://www.w3.org/2000/svg">
<path d="M4.94975 19.0919L11.3137 12.7279L18.3848 19.799L12.0208 26.163C10.0682 28.1156 6.90237 28.1156 4.94975 26.163C2.99713 24.2104 2.99713 21.0445 4.94975 19.0919ZM19.799 18.3848L12.7279 11.3137L19.0919 4.94977C21.0445 2.99715 24.2103 2.99715 26.163 4.94977C28.1156 6.90239 28.1156 10.0682 26.163 12.0208L19.799 18.3848Z" stroke="#338DF5" stroke-width="2"/>
<path d="M4.94975 19.0919L11.3137 12.7279L18.3848 19.799L12.0208 26.163C10.0682 28.1156 6.90237 28.1156 4.94975 26.163C2.99713 24.2104 2.99713 21.0445 4.94975 19.0919ZM19.799 18.3848L12.7279 11.3137L19.0919 4.94977C21.0445 2.99715 24.2103 2.99715 26.163 4.94977C28.1156 6.90239 28.1156 10.0682 26.163 12.0208L19.799 18.3848Z" stroke="#2194D2" stroke-width="2"/>
</svg>
