<svg width="48" height="48" viewBox="0 0 48 48" fill="none" xmlns="http://www.w3.org/2000/svg">
<rect width="48" height="48" rx="8" fill="#F54A33"/>
<path fill-rule="evenodd" clip-rule="evenodd" d="M38.1421 9.85781C34.3646 6.08031 29.3422 4 24 4C18.6579 4 13.6354 6.08031 9.85781 9.85781C6.08031 13.6354 4 18.6579 4 24C4 29.3422 6.08031 34.3646 9.85781 38.1422C13.6354 41.9196 18.6578 44 24 44C29.3422 44 34.3646 41.9197 38.1421 38.1422C41.9196 34.3646 44 29.3422 44 24C44 18.6578 41.9196 13.6354 38.1421 9.85781ZM24.1994 25.3663L29.2052 21.1321L31.558 19.142L38.2104 13.5152C40.4473 16.5337 41.6562 20.1739 41.6562 24C41.6562 28.7162 39.8197 33.15 36.4848 36.4849C33.15 39.8197 28.7161 41.6562 24 41.6562C19.2838 41.6562 14.85 39.8197 11.5151 36.4848C11.4546 36.4244 11.3954 36.3631 11.3362 36.3018L11.3067 36.2713L21.6612 27.513L24.1994 25.3663ZM6.34375 24C6.34375 27.8261 7.55273 31.4663 9.78961 34.4848L19.3114 26.4309L21.1887 24.843L27.1856 19.7705L31.558 16.0723L36.6933 11.7287L36.6636 11.698C36.6044 11.6367 36.5452 11.5755 36.4848 11.5151C33.15 8.18031 28.7161 6.34375 24 6.34375C19.2839 6.34375 14.85 8.18031 11.5151 11.5151C8.18031 14.85 6.34375 19.2839 6.34375 24Z" fill="white"/>
<path d="M23.7976 8C22.9609 8 22.1989 8.3387 21.6296 8.891C21.5456 8.84293 21.4566 8.80152 21.3628 8.76852C20.4971 8.46403 19.556 8.95143 19.2643 9.85448C19.1144 10.3191 19 16.0862 19 16.0862C19 16.0862 20.9396 13.3351 21.1023 13.0983C21.6675 14.0311 22.6641 14.6524 23.7976 14.6524C25.5551 14.6524 26.985 13.1603 26.985 11.3262C26.985 9.49211 25.5551 8 23.7976 8ZM23.7976 12.8277C23.0043 12.8277 22.3588 12.1541 22.3588 11.3262C22.3588 11.2013 22.3737 11.0799 22.4014 10.9639C22.4019 10.9622 22.4027 10.9601 22.4033 10.9584C22.416 10.9192 22.4267 10.8798 22.4366 10.8403C22.6306 10.2502 23.1672 9.82475 23.7976 9.82475C24.5909 9.82475 25.2364 10.4983 25.2364 11.3263C25.2364 12.1542 24.591 12.8277 23.7976 12.8277Z" fill="white"/>
<path d="M32 25.1561C32 22.8144 30.508 20.8295 28.4639 20.1825C28.5159 19.992 28.5422 19.7986 28.5434 19.6013C28.5475 18.9485 28.2687 18.3242 27.7146 17.7459L27.6661 17.6953L24.8802 15.581H24.5959C22.5371 15.581 20.8329 17.1934 20.6314 19.337L19.5055 32.0856H22.8699V39H24.6184V32.0856H29.6958L29.2849 29.7858C30.9356 28.9098 32 27.1371 32 25.1561ZM28.0248 28.3615L27.2962 28.6098L27.5913 30.2609H21.4226L22.3722 19.5099C22.4105 19.1029 22.5461 18.7301 22.7533 18.4149V20.7805C22.7533 23.6601 24.9982 26.0027 27.7574 26.0027H28.6832V24.178H27.7574C25.9623 24.178 24.5018 22.6539 24.5018 20.7805V17.55L26.5223 19.0834C26.6995 19.2791 26.7959 19.4573 26.795 19.5893C26.7943 19.699 26.7271 19.8972 26.4108 20.2188L24.8704 21.7847H27.0209C28.8022 21.7847 30.2515 23.2971 30.2515 25.1562C30.2515 26.6194 29.3567 27.9076 28.0248 28.3615Z" fill="white"/>
</svg>
