<svg width="16" height="16" viewBox="0 0 16 16" fill="none" xmlns="http://www.w3.org/2000/svg">
<path d="M0.564855 16H15.4351C15.7504 16 16 15.7379 16 15.4069C16 12.3034 13.5961 8.76551 10.6273 8.76551H5.37275C2.41708 8.76551 0 12.2896 0 15.4069C0 15.7379 0.249586 16 0.564855 16ZM5.37275 9.95171H10.6273C12.7816 9.95171 14.555 12.6345 14.8309 14.8138H1.16912C1.44498 12.6483 3.2184 9.95171 5.37275 9.95171Z" fill="white"/>
<path fill-rule="evenodd" clip-rule="evenodd" d="M8 7C9.65685 7 11 5.65685 11 4C11 2.34315 9.65685 1 8 1C6.34315 1 5 2.34315 5 4C5 5.65685 6.34315 7 8 7ZM8 8C10.2091 8 12 6.20914 12 4C12 1.79086 10.2091 0 8 0C5.79086 0 4 1.79086 4 4C4 6.20914 5.79086 8 8 8Z" fill="white"/>
</svg>
