<svg width="14" height="15" viewBox="0 0 14 15" fill="none" xmlns="http://www.w3.org/2000/svg">
<path fill-rule="evenodd" clip-rule="evenodd" d="M11.2737 6.13334C11.2737 9.15249 8.82463 11.6 5.80358 11.6C2.78254 11.6 0.333496 9.15249 0.333496 6.13334C0.333496 3.11418 2.78254 0.666672 5.80358 0.666672C8.82463 0.666672 11.2737 3.11418 11.2737 6.13334ZM1.70102 6.13334C1.70102 8.39771 3.5378 10.2333 5.80358 10.2333C8.06936 10.2333 9.90615 8.39771 9.90615 6.13334C9.90615 3.86897 8.06936 2.03334 5.80358 2.03334C3.5378 2.03334 1.70102 3.86897 1.70102 6.13334Z" fill="#94A8B2"/>
<path fill-rule="evenodd" clip-rule="evenodd" d="M12.4873 14.1206C12.7474 14.3942 13.1802 14.4054 13.454 14.1454C13.7278 13.8855 13.7389 13.453 13.4788 13.1794L9.71813 9.22286C9.45805 8.94923 9.02526 8.93812 8.75147 9.19804C8.47767 9.45796 8.46656 9.89048 8.72663 10.1641L12.4873 14.1206Z" fill="#94A8B2"/>
</svg>
