<svg width="48" height="48" viewBox="0 0 48 48" fill="none" xmlns="http://www.w3.org/2000/svg">
<rect x="1" y="1" width="46" height="46" rx="7" fill="white"/>
<rect x="1" y="1" width="46" height="46" rx="7" stroke="#338DF5" stroke-width="2"/>
<rect x="1" y="1" width="46" height="46" rx="7" stroke="#2194D2" stroke-width="2"/>
<rect x="1" y="1" width="46" height="46" rx="7" stroke="#2393D2" stroke-width="2"/>
<path d="M12.5962 26.7384L19.3137 20.0208L27.0919 27.799L20.3744 34.5165C18.2265 36.6644 14.7441 36.6644 12.5962 34.5165C10.4483 32.3686 10.4483 28.8862 12.5962 26.7384Z" fill="#338DF5"/>
<path d="M12.5962 26.7384L19.3137 20.0208L27.0919 27.799L20.3744 34.5165C18.2265 36.6644 14.7441 36.6644 12.5962 34.5165C10.4483 32.3686 10.4483 28.8862 12.5962 26.7384Z" fill="#2194D2"/>
<path d="M12.5962 26.7384L19.3137 20.0208L27.0919 27.799L20.3744 34.5165C18.2265 36.6644 14.7441 36.6644 12.5962 34.5165C10.4483 32.3686 10.4483 28.8862 12.5962 26.7384Z" fill="#2393D2"/>
<path d="M12.5962 26.7384L19.3137 20.0208L27.0919 27.799L20.3744 34.5165C18.2265 36.6644 14.7441 36.6644 12.5962 34.5165C10.4483 32.3686 10.4483 28.8862 12.5962 26.7384Z" stroke="#338DF5"/>
<path d="M12.5962 26.7384L19.3137 20.0208L27.0919 27.799L20.3744 34.5165C18.2265 36.6644 14.7441 36.6644 12.5962 34.5165C10.4483 32.3686 10.4483 28.8862 12.5962 26.7384Z" stroke="#2194D2"/>
<path d="M12.5962 26.7384L19.3137 20.0208L27.0919 27.799L20.3744 34.5165C18.2265 36.6644 14.7441 36.6644 12.5962 34.5165C10.4483 32.3686 10.4483 28.8862 12.5962 26.7384Z" stroke="#2393D2"/>
<path d="M12.9497 27.0919L19.3137 20.7279L26.3848 27.799L20.0208 34.163C18.0682 36.1156 14.9024 36.1156 12.9497 34.163C10.9971 32.2104 10.9971 29.0445 12.9497 27.0919ZM27.799 26.3848L20.7279 19.3137L27.0919 12.9498C29.0445 10.9971 32.2103 10.9972 34.163 12.9498C36.1156 14.9024 36.1156 18.0682 34.163 20.0208L27.799 26.3848Z" stroke="#338DF5" stroke-width="2"/>
<path d="M12.9497 27.0919L19.3137 20.7279L26.3848 27.799L20.0208 34.163C18.0682 36.1156 14.9024 36.1156 12.9497 34.163C10.9971 32.2104 10.9971 29.0445 12.9497 27.0919ZM27.799 26.3848L20.7279 19.3137L27.0919 12.9498C29.0445 10.9971 32.2103 10.9972 34.163 12.9498C36.1156 14.9024 36.1156 18.0682 34.163 20.0208L27.799 26.3848Z" stroke="#2194D2" stroke-width="2"/>
<path d="M12.9497 27.0919L19.3137 20.7279L26.3848 27.799L20.0208 34.163C18.0682 36.1156 14.9024 36.1156 12.9497 34.163C10.9971 32.2104 10.9971 29.0445 12.9497 27.0919ZM27.799 26.3848L20.7279 19.3137L27.0919 12.9498C29.0445 10.9971 32.2103 10.9972 34.163 12.9498C36.1156 14.9024 36.1156 18.0682 34.163 20.0208L27.799 26.3848Z" stroke="#2393D2" stroke-width="2"/>
</svg>
