<svg width="11" height="16" viewBox="0 0 11 16" fill="none" xmlns="http://www.w3.org/2000/svg">
<path d="M5.99972 0.281881L8.62031 3.22317C8.79372 3.41704 8.76849 3.70876 8.56337 3.87371C8.47214 3.94695 8.36149 3.98264 8.25019 3.98264C8.11237 3.98264 7.97584 3.92787 7.87943 3.81955L5.98549 1.69313V10.0012C5.98549 10.256 5.76808 10.4628 5.50019 10.4628C5.23231 10.4628 5.0149 10.256 5.0149 10.0012V1.69867L3.12031 3.82509C3.02455 3.93218 2.88737 3.98757 2.75019 3.98757C2.6389 3.98757 2.52761 3.95187 2.43572 3.87802C2.2319 3.71369 2.20666 3.42196 2.37943 3.22747L5.00066 0.286189C5.0031 0.28347 5.00657 0.279279 5.01104 0.273876C5.06119 0.213252 5.2376 0 5.50019 0C5.7667 0 5.93738 0.20664 5.98876 0.26884C5.99339 0.274446 5.99705 0.278879 5.99972 0.281881Z" fill="white"/>
<path d="M1.77941 16H9.22059C10.2022 16 11 15.2411 11 14.3075V7.22969C11 6.29604 10.2022 5.53717 9.22059 5.53717H7.91547V6.46036H9.22059C9.66641 6.46036 10.0294 6.80564 10.0294 7.22969V14.3075C10.0294 14.7315 9.66641 15.0768 9.22059 15.0768H1.77941C1.33359 15.0768 0.970588 14.7315 0.970588 14.3075V7.22969C0.970588 6.80564 1.33359 6.46036 1.77941 6.46036H3.11171V5.53717H1.77941C0.797824 5.53717 0 6.29604 0 7.22969V14.3075C0 15.2411 0.797824 16 1.77941 16Z" fill="white"/>
</svg>
