<svg width="15" height="17" viewBox="0 0 15 17" fill="none" xmlns="http://www.w3.org/2000/svg">
<path fill-rule="evenodd" clip-rule="evenodd" d="M8.0916 1.13642C7.83884 0.911232 7.45743 0.911231 7.20466 1.13642L1.28257 6.41245C0.653353 6.97302 0.729599 7.86412 1.23717 8.36593V16.3286C1.23717 16.6967 1.53565 16.9952 1.90384 16.9952H13.3985C13.7667 16.9952 14.0652 16.6967 14.0652 16.3286V8.35985C14.5531 7.87118 14.6359 7.0206 14.0652 6.4606V4.624C14.0652 4.09264 13.6345 3.66189 13.1031 3.66189C12.5717 3.66189 12.141 4.09264 12.141 4.624V4.74405L8.0916 1.13642ZM12.141 10.3286H9.57539V14.9952H12.141V10.3286Z" fill="#1A76A7"/>
</svg>
