<svg width="16" height="16" viewBox="0 0 16 16" fill="none" xmlns="http://www.w3.org/2000/svg">
<path d="M14.0474 6.65168C14.6768 5.74715 15 4.85969 15 4.00636C15 2.5045 13.8433 1.25864 12.3633 1.03678C11.4958 0.917309 10.7643 1.17331 10.0328 1.59997C9.96476 1.65117 9.89672 1.68531 9.82868 1.71944C9.77764 1.68531 9.72661 1.66824 9.65857 1.65117C9.52248 1.63411 9.4034 1.66824 9.30134 1.73651C9.19927 1.80477 9.13123 1.92424 9.11422 2.06077C9.0802 2.31677 9.25031 2.57277 9.50547 2.6069H9.52248C9.65857 2.62397 9.77765 2.58983 9.87971 2.52157C9.98178 2.4533 10.0498 2.33384 10.0668 2.1973C10.0838 2.11197 10.0668 2.02664 10.0328 1.9413C10.5601 1.53171 11.2406 1.30984 11.904 1.30984C13.418 1.32691 14.6428 2.4533 14.6428 4.00636C14.6428 4.77436 14.3366 5.59355 13.7412 6.44688L13.418 6.20795L8.02552 13.2394L2.58202 6.20795L2.25881 6.44688C1.66342 5.59355 1.35723 4.77436 1.35723 4.00636C1.35723 2.47037 2.58201 1.32691 4.09598 1.30984C4.75941 1.30984 5.43985 1.53171 5.96719 1.9413C5.93317 2.02664 5.91616 2.11197 5.93317 2.1973C5.95018 2.33384 6.01822 2.43624 6.12029 2.52157C6.22235 2.58983 6.35845 2.62397 6.47752 2.6069H6.49453C6.74969 2.5557 6.9198 2.31677 6.88578 2.06077C6.86877 1.92424 6.80073 1.82184 6.69866 1.73651C6.5966 1.66824 6.46051 1.63411 6.34143 1.65117C6.27339 1.66824 6.22236 1.68531 6.17132 1.71944C6.12029 1.68531 6.05225 1.65117 5.96719 1.59997C5.23572 1.15624 4.50425 0.900243 3.63669 1.03678C2.17375 1.25864 1.01701 2.5045 1 4.00636C1 4.85969 1.3232 5.74715 1.95261 6.65168L1.59538 6.90768L7.94046 14.9119L8.00332 15L14.4046 6.92475L14.0474 6.65168Z" fill="#94A8B2" stroke="#94A8B2" stroke-width="0.6"/>
</svg>
