<svg width="12" height="15" viewBox="0 0 12 15" fill="none" xmlns="http://www.w3.org/2000/svg">
<path fill-rule="evenodd" clip-rule="evenodd" d="M11.0769 13.0525V1.61422C11.0769 1.22953 10.7618 0.916648 10.3747 0.916648H1.62549C1.2381 0.916648 0.923027 1.22953 0.923027 1.61422V13.0525C0.923027 13.4371 1.2381 13.75 1.62549 13.75H10.3747C10.7618 13.75 11.0769 13.4371 11.0769 13.0525ZM10.3748 0C11.2708 0 12 0.724152 12 1.61422V13.0525C12 13.9425 11.2708 14.6667 10.3748 14.6667H1.62554C0.729231 14.6667 0 13.9425 0 13.0525V1.61422C0 0.724152 0.729231 0 1.62554 0H10.3748ZM2 8H10V4H2V8ZM2.30775 2.90339H6.00006C6.25514 2.90339 6.4616 2.69837 6.4616 2.44507C6.4616 2.19177 6.25514 1.98674 6.00006 1.98674H2.30775C2.05268 1.98674 1.84622 2.19177 1.84622 2.44507C1.84622 2.69837 2.05268 2.90339 2.30775 2.90339ZM2 12.6667H5.33333V10.6667H2V12.6667ZM2.26667 10H4.4C4.54738 10 4.66667 9.85089 4.66667 9.66667C4.66667 9.48244 4.54738 9.33333 4.4 9.33333H2.26667C2.11929 9.33333 2 9.48244 2 9.66667C2 9.85089 2.11929 10 2.26667 10ZM6.66667 12.6667H10V10.6667H6.66667V12.6667ZM6.86667 10H8.46667C8.5772 10 8.66667 9.85089 8.66667 9.66667C8.66667 9.48244 8.5772 9.33333 8.46667 9.33333H6.86667C6.75613 9.33333 6.66667 9.48244 6.66667 9.66667C6.66667 9.85089 6.75613 10 6.86667 10Z" fill="#94A8B2"/>
</svg>
