<svg width="16" height="16" viewBox="0 0 16 16" fill="none" xmlns="http://www.w3.org/2000/svg">
<path fill-rule="evenodd" clip-rule="evenodd" d="M7.66667 15.3333C11.9008 15.3333 15.3333 11.9008 15.3333 7.66667C15.3333 3.43258 11.9008 0 7.66667 0C3.43258 0 0 3.43258 0 7.66667C0 11.9008 3.43258 15.3333 7.66667 15.3333ZM4.69885 11.8417C4.86366 11.7888 5.02947 11.7379 5.19693 11.6921C5.24358 11.6794 5.294 11.6679 5.3461 11.656C5.59787 11.5983 5.88913 11.5316 5.98592 11.2811C5.98592 11.2811 6.14213 10.8089 6.07793 9.99195C6.07793 9.99195 5.59937 9.91947 5.6639 8.52163C5.6639 8.52163 5.27735 8.83933 5.18535 8.04948C5.18535 8.04948 5.08407 7.50484 5.0106 7.40492C5.0106 7.40492 4.80806 6.86943 5.17608 6.94192C5.17608 6.94192 5.11154 5.88889 5.06587 5.65281C5.02616 5.44972 5.04932 5.21201 5.0854 5.01087C5.11717 4.8352 5.1731 4.65888 5.2747 4.50933C5.35505 4.39132 5.47854 4.31681 5.60097 4.24293C5.65605 4.20969 5.71091 4.17659 5.76154 4.13971C5.82185 4.09577 5.88139 4.05049 5.94097 4.00517C6.08771 3.89358 6.23474 3.78177 6.39432 3.68911C6.48268 3.63818 6.57303 3.59018 6.6657 3.5474C6.68565 3.53813 6.73124 3.52625 6.78136 3.5132C6.86179 3.49226 6.95386 3.46829 6.97018 3.44716C6.97018 3.44716 7.05291 3.3381 7.22799 3.3381C7.41498 3.32733 7.60494 3.33582 7.79127 3.35345C7.96039 3.36978 8.12884 3.3959 8.29266 3.44063C8.42579 3.47677 8.55979 3.53355 8.69207 3.58961C8.75939 3.61814 8.82627 3.64648 8.89235 3.67181C9.03632 3.72699 9.17399 3.7985 9.30075 3.88568C9.67505 4.14298 9.88256 4.51129 9.94213 4.95406C9.94213 4.95406 10.0616 5.8435 9.78559 6.87825C9.78559 6.87825 10.2827 6.62421 9.94213 7.68639C9.94213 7.68639 9.85013 8.00409 9.83193 8.17649C9.83193 8.17649 9.80413 8.63036 9.45464 8.41257C9.45464 8.41257 9.48211 9.91946 8.98535 9.98314C8.98535 9.98314 8.93008 11.3539 9.2521 11.4988C9.2521 11.4988 9.55558 11.7261 10.5587 11.9165C10.5587 11.9165 11.4023 12.1934 12 12.4676C10.8493 13.4227 9.36561 14 7.74394 14C6.04715 14 4.50458 13.3649 3.33333 12.3292C3.78442 12.1555 4.23882 11.9899 4.69885 11.8417Z" fill="#94A8B2"/>
</svg>
